<svg id="Capa_1" enable-background="new 0 0 512 512" height="512" viewBox="0 0 512 512" width="512" xmlns="http://www.w3.org/2000/svg"><g><path d="m407.355 115.652c-.467-.745-1.128-1.37-1.939-1.789l-144.814-74.802c-2.886-1.491-6.317-1.487-9.2.011l-144.83 75.256c-.808.42-1.466 1.044-1.931 1.788l151.358 86.925z" fill="#ff637b"/><path d="m512 323.791c0 78.37-131.34 112.12-209.44 118.58-8.35.68-15.51-5.54-16.18-13.72-.69-8.25 5.45-15.5 13.71-16.18 59.91-4.94 181.91-33.14 181.91-88.68 0-24.94-29.71-50.14-78.7-67.63v-31.67c50.1 16.24 108.7 48.32 108.7 99.3z" fill="#00204d"/><path d="m216.57 442.961-75 30c-11.16 4.47-22.79-5.39-20.22-17.13l5.96-27.29c-79.9-21.18-127.31-60.03-127.31-104.75 0-50.27 56.99-82.17 106.64-98.62v31.73c-47.76 17.46-76.64 42.3-76.64 66.89 0 29.18 40.41 58.35 103.71 75.41l6.64-30.37c2.54-11.64 17.02-15.79 25.35-7.31l56 57c7.51 7.65 4.79 20.47-5.13 24.44z" fill="#004692"/><path d="m407.35 115.651-151.35 87.39v-165.1c1.58 0 3.16.37 4.6 1.12l144.82 74.8c.81.42 1.47 1.05 1.93 1.79z" fill="#e63950"/><path d="m255.999 193.042-151.358-76.925c-.488.781-.764 1.693-.764 2.648v170.248c0 1.895 1.071 3.627 2.766 4.473l144.966 72.382c1.382.69 2.885 1.041 4.391 1.052l10-91.163z" fill="#e63950"/><path d="m407.355 115.652-151.355 77.389v173.879c1.515.012 3.033-.32 4.433-.998l144.867-70.116c1.726-.835 2.822-2.583 2.822-4.501v-173c-.001-.957-.278-1.871-.767-2.653z" fill="#cd0000"/></g></svg>