<svg id="Capa_1" enable-background="new 0 0 512 512" height="512" viewBox="0 0 512 512" width="512" xmlns="http://www.w3.org/2000/svg"><g><path d="m447.201 247.77c65.509-55.759 31.654-164.157-55.156-171.424.535-40.553-32.201-76.346-75.546-76.346-24.73 0-46.72 11.932-60.5 30.332-13.78-18.4-35.77-30.332-60.5-30.332-43.327 0-76.082 35.778-75.546 76.345-51.007 4.273-89.454 46.885-89.454 97.155 0 28.81 12.688 55.876 34.298 74.27-45.177 40.309-47.736 111.461-3.354 154.34 16.162 15.613 36.888 25.681 58.736 28.87-2.986 41.974 29.615 81.02 75.32 81.02 24.73 0 46.72-11.932 60.5-30.332 13.78 18.4 35.77 30.332 60.5 30.332 45.669 0 78.308-39.016 75.319-81.021 21.847-3.189 42.576-13.257 58.736-28.87 44.413-42.907 41.792-114.06-3.353-154.339z" fill="#ffccbd"/><path d="m450.559 402.11c-16.16 15.61-36.89 25.68-58.74 28.87 2.99 42-29.65 81.02-75.32 81.02-24.73 0-46.72-11.93-60.5-30.33v-451.34c13.78-18.4 35.77-30.33 60.5-30.33 43.34 0 76.08 35.79 75.55 76.35 86.81 7.26 120.66 115.66 55.15 171.42 45.15 40.28 47.77 111.43 3.36 154.34z" fill="#ffbda9"/><path d="m158.592 463.042c-8.602-12.056-10.923-27.436-6.208-41.143 3.414-9.925-4.159-20.208-14.702-19.87-20.303.706-40.527-7.132-55.394-21.496-35.891-34.672-28.556-95.29 16.155-120.085 10.557-5.855 10.203-21.188-.604-26.554-22.683-11.261-37.34-34.967-37.34-60.395 0-39.203 33.894-71.615 74.999-67.09 10.508 1.156 18.909-8.666 16.105-18.879-7.906-28.816 13.774-57.53 43.896-57.53 25.089 0 45.5 20.355 45.5 45.375v361.25c0 44.117-56.978 62.052-82.407 26.417z" fill="#ffede4"/><path d="m429.71 380.533c-14.866 14.362-35.067 22.198-55.394 21.496-10.576-.338-18.105 9.979-14.702 19.87 9.73 28.286-11.001 60.101-43.115 60.101-25.089 0-45.5-20.355-45.5-45.375v-361.25c0-25.02 20.411-45.375 45.5-45.375 30.028 0 51.825 28.629 43.896 57.531-2.799 10.197 5.579 20.037 16.105 18.879 41.038-4.521 74.999 27.836 74.999 67.09 0 25.427-14.657 49.133-37.34 60.395-10.813 5.368-11.157 20.701-.604 26.554 44.692 24.784 52.063 85.395 16.155 120.084z" fill="#ffddce"/><path d="m361.499 192h-54.248l19.269-50.668c3.724-9.794-3.511-20.332-14.021-20.332h-88c-6.271 0-11.88 3.901-14.063 9.78l-49 132c-3.665 9.872 3.737 20.388 14.313 20.218l38.595-.644-34.026 98.759c-5.257 15.255 14.15 26.911 25.149 15.119l167-179c8.925-9.566 2.125-25.232-10.968-25.232z" fill="#ffaa17"/><path d="m372.469 217.23-116.47 124.84v-221.07h56.5c10.51 0 17.74 10.54 14.02 20.33l-19.27 50.67h54.25c13.09 0 19.89 15.67 10.97 25.23z" fill="#ff7900"/><path d="m383.189 167.189c3.892-.428 7.163 2.467 7.163 6.311 0 8.284 6.716 15 15 15s15-6.716 15-15c0-21.795-18.901-38.502-40.446-36.131-8.234.907-14.175 8.317-13.269 16.551.908 8.235 8.311 14.173 16.552 13.269z" fill="#ffbda9"/><path d="m121.645 173.5c0-3.86 3.29-6.738 7.163-6.311 8.243.902 15.646-5.034 16.552-13.269.906-8.234-5.034-15.645-13.269-16.551-21.623-2.379-40.446 14.425-40.446 36.131 0 8.284 6.716 15 15 15s15-6.716 15-15z" fill="#ffccbd"/><path d="m398.449 287.686c-7.245-4.019-16.376-1.401-20.393 5.843-4.018 7.245-1.401 16.375 5.844 20.393 7.433 4.123 8.844 12.474 6.396 18.24-2.201 5.189-8.156 8.944-13.872 8.758-8.274-.277-15.223 6.194-15.509 14.474-.269 7.797 5.538 15.534 15.916 15.534 17.506 0 34.254-10.957 41.082-27.046 8.892-20.954.524-45.112-19.464-56.196z" fill="#ffbda9"/><path d="m135.573 340.919c-5.716.186-11.671-3.569-13.872-8.758-2.447-5.766-1.036-14.117 6.396-18.24 7.245-4.018 9.861-13.147 5.844-20.393-4.02-7.245-13.148-9.862-20.393-5.843-19.987 11.084-28.355 35.242-19.465 56.194 7.046 16.604 24.581 27.641 42.524 27.021 8.279-.286 14.759-7.229 14.474-15.509-.286-8.278-7.237-14.758-15.508-14.472z" fill="#ffccbd"/></g></svg>