<svg id="Capa_1" enable-background="new 0 0 512.002 512.002" height="512" viewBox="0 0 512.002 512.002" width="512" xmlns="http://www.w3.org/2000/svg"><g><path d="m495.404 221.071c-15 26.234-43.26 43.954-75.583 43.954h-313.768c-23.337 0-30.692 31.429-9.771 41.781 9.449 4.675 6.108 18.963-4.433 18.963-40.44 0-77.682-29.647-85.386-71.815l-4.326.33c-3.35 15.982-1.405 22.298-1.956 104.973 0 50.729 41.271 92 92 92h313.769c18.061 0 23.735 24.293 7.554 32.299-14.298 7.076-8.992 28.695 6.833 28.443 50.828-.61 91.665-41.926 91.665-92.773v-145.215c-.001-19.342-5.925-37.621-16.598-52.94z" fill="#ff637b"/><path d="m512.001 274.01v145.22c0 50.84-40.84 92.16-91.67 92.77-15.82.25-21.13-21.37-6.83-28.44 16.18-8.01 10.51-32.3-7.55-32.3h-149.95v-186.23h163.82c32.32 0 60.58-17.72 75.58-43.96 10.68 15.32 16.6 33.6 16.6 52.94z" fill="#e63950"/><path d="m419.821 0h-327.04c-51.159 0-92.78 41.621-92.78 92.78v145.214c0 52.277 42.885 92.775 91.848 92.775 15.8 0 20.816-21.434 6.65-28.444-16.189-8.009-10.5-32.3 7.554-32.3h313.769c50.729 0 92-41.271 92-92v-86.025c-.001-50.729-41.272-92-92.001-92z" fill="#ffda2d"/><path d="m511.821 92v86.03c0 50.72-41.27 92-92 92h-163.82v-270.03h163.82c50.73 0 92 41.27 92 92z" fill="#ffaa17"/><path d="m159.55 87.558-10.54-10.54c-17.195-17.195-45.075-17.195-62.27 0-17.195 17.195-17.195 45.075 0 62.27l65.74 65.74c3.905 3.905 10.237 3.905 14.142 0l65.74-65.74c17.195-17.195 17.195-45.075 0-62.27-17.195-17.195-45.075-17.195-62.27 0z" fill="#ffaa17"/><g><g><path d="m420.771 151h-134.77c-8.284 0-15-6.716-15-15s6.716-15 15-15h134.77c8.284 0 15 6.716 15 15s-6.716 15-15 15z" fill="#ff7900"/></g></g><g><g><path d="m420.771 91.077h-134.77c-8.284 0-15-6.716-15-15s6.716-15 15-15h134.77c8.284 0 15 6.716 15 15s-6.716 15-15 15z" fill="#ff7900"/></g></g><g><g><path d="m420.771 211h-134.77c-8.284 0-15-6.716-15-15s6.716-15 15-15h134.77c8.284 0 15 6.716 15 15s-6.716 15-15 15z" fill="#ff7900"/></g></g><path d="m150.924 330.692h269.847c8.284 0 15-6.716 15-15s-6.716-15-15-15h-269.847c-8.284 0-15 6.716-15 15s6.716 15 15 15z" fill="#e63950"/><path d="m435.771 315.69c0 8.29-6.72 15-15 15h-164.77v-30h164.77c8.28 0 15 6.72 15 15z" fill="#cd0000"/><path d="m420.771 360.692h-328.924c-8.284 0-15 6.716-15 15s6.716 15 15 15h328.924c8.284 0 15-6.716 15-15s-6.716-15-15-15z" fill="#e63950"/><path d="m435.771 375.69c0 8.29-6.72 15-15 15h-164.77v-30h164.77c8.28 0 15 6.72 15 15z" fill="#cd0000"/></g></svg>