<svg id="Capa_1" enable-background="new 0 0 512 512" height="512" viewBox="0 0 512 512" width="512" xmlns="http://www.w3.org/2000/svg"><g><path d="m195 168v144h-185l-10-10v-134l98-10z" fill="#32fca5"/><path d="m195 168v144h-97v-154z" fill="#00e97b"/><path d="m241.04 312h-189.53l94.76-94.77 55.135 35.135z" fill="#ffda2d"/><path d="m392.823 246.463-65.823 65.537h-85.96l-94.77-94.77 108.66-108.66 78.941 58.941z" fill="#ffaa17"/><path d="m241.043 312h-51.647l31.028-31.028z" fill="#ffaa17"/><path d="m392.823 246.458-65.824 65.542h-85.956l-25.824-25.824 118.66-118.659z" fill="#ff7900"/><path d="m422.754 46.819c-29.242-29.241-76.824-29.242-106.066 0l-61.753 61.753 137.885 137.887 104.18-104.18c5.858-5.857 5.858-15.355 0-21.213z" fill="#ff7900"/><path d="m497.001 142.28-104.178 104.178-68.943-68.943 114.785-114.784 58.336 58.336c5.855 5.855 5.855 15.358 0 21.213z" fill="#ff4800"/><path d="m195 15c0-8.284-6.716-15-15-15h-105c-41.355 0-75 33.645-75 75v93h195z" fill="#00e97b"/><path d="m195 15v153h-97v-168h82c8.28 0 15 6.72 15 15z" fill="#00ca7d"/><path d="m437 302c-10.924 0-424.874 0-437 0v135c0 41.421 33.579 75 75 75h422c8.284 0 15-6.716 15-15v-120c0-41.421-33.579-75-75-75z" fill="#edf5ff"/><path d="m512 407v90c0 8.28-6.72 15-15 15h-422c-41.42 0-75-33.58-75-75v-30z" fill="#cee8ff"/><circle cx="98" cy="407" fill="#004692" r="45"/><path d="m143 407c0 24.81-20.19 45-45 45s-45-20.19-45-45z" fill="#00204d"/><g fill="#edf5ff"><circle cx="98" cy="407" r="15"/><path d="m113 407c0 8.27-6.73 15-15 15s-15-6.73-15-15z"/></g></g></svg>