<svg id="Capa_1" enable-background="new 0 0 512 512" height="512" viewBox="0 0 512 512" width="512" xmlns="http://www.w3.org/2000/svg"><g><path d="m355.5 422h-24.5v-66.54h-60v35.54c0 8.28-6.72 15-15 15s-15-6.72-15-15v-35.54h-60v66.54h-25.09c-19.03.32-34.41 15.9-34.41 35v40c0 8.28 6.72 15 15 15h239c8.28 0 15-6.72 15-15v-40c0-19.3-15.7-35-35-35z" fill="#cee8ff"/><path d="m390.5 457v40c0 8.28-6.72 15-15 15h-119.5v-106c8.28 0 15-6.72 15-15v-35.54h60v66.54h24.5c19.3 0 35 15.7 35 35z" fill="#aedaff"/><path d="m497 0h-482c-8.284 0-15 6.716-15 15v331c0 8.284 6.716 15 15 15h482c8.284 0 15-6.716 15-15v-331c0-8.284-6.716-15-15-15z" fill="#004692"/><path d="m512 15v331c0 8.28-6.72 15-15 15h-241v-361h241c8.28 0 15 6.72 15 15z" fill="#00204d"/><path d="m30 30h452v301h-452z" fill="#4ec9ff"/><path d="m256 30h226v301h-226z" fill="#0095ff"/><path d="m309.75 137.071v-61.571c0-8.284-6.716-15-15-15h-144c-8.284 0-15 6.716-15 15v144c0 8.284 6.716 15 15 15h62.16z" fill="#ffda2d"/><path d="m309.75 75.5v61.57l-53.75 54.08v-130.65h38.75c8.28 0 15 6.72 15 15z" fill="#ffaa17"/><path d="m309.75 137.071-96.84 97.429c7.665 37.611 40.998 66 80.84 66 45.491 0 82.5-37.009 82.5-82.5 0-40.017-28.643-73.458-66.5-80.929z" fill="#e63950"/><path d="m376.25 218c0 45.49-37.01 82.5-82.5 82.5-13.6 0-26.43-3.31-37.75-9.16v-100.19l53.75-54.08c37.86 7.47 66.5 40.91 66.5 80.93z" fill="#cd0000"/><path d="m309.75 219.5v-82.429c-5.179-1.022-10.526-1.571-16-1.571-45.491 0-82.5 37.009-82.5 82.5 0 5.649.573 11.167 1.66 16.5h81.84c8.284 0 15-6.716 15-15z" fill="#ff7900"/><path d="m309.75 137.07v82.43c0 8.28-6.72 15-15 15h-38.75v-89.84c16.025-8.296 34.88-11.306 53.75-7.59z" fill="#ff4800"/></g></svg>