<svg id="Capa_1" enable-background="new 0 0 512 512" height="512" viewBox="0 0 512 512" width="512" xmlns="http://www.w3.org/2000/svg"><g><path d="m434.728 60.62c-9.467 0-305.275 0-314.73 0-8.284 0-15 6.716-15 15v421.38c0 8.284 6.716 15 15 15h314.73c8.284 0 15-6.716 15-15v-421.38c0-8.284-6.716-15-15-15z" fill="#cee8ff"/><path d="m449.728 75.62v421.38c0 8.28-6.72 15-15 15h-254.63v-451.38h254.63c8.28 0 15 6.72 15 15z" fill="#aedaff"/><path d="m330.188 0h-300.19c-8.284 0-15 6.716-15 15v422c0 8.284 6.716 15 15 15h300.19c8.284 0 15-6.716 15-15v-422c0-8.284-6.716-15-15-15z" fill="#edf5ff"/><path d="m345.188 15v422c0 8.28-6.72 15-15 15h-150.09v-452h150.09c8.28 0 15 6.72 15 15z" fill="#cee8ff"/><path d="m489.466 387.188-39.586-22.726c.422-5.48.428-11.112-.063-16.926l39.45-22.906c7.167-4.16 9.603-13.358 5.43-20.521l-30.199-51.846c-4.166-7.151-13.337-9.578-20.493-5.422l-39.503 22.937c-4.66-3.203-9.556-6.014-14.661-8.418l-.112-45.626c-.02-8.175-6.618-14.963-15.058-14.963l-59.999.229c-8.276.032-14.963 6.761-14.943 15.037l.112 45.654c-5.087 2.441-9.962 5.288-14.598 8.525l-39.59-22.729c-7.186-4.127-16.37-1.638-20.487 5.559l-29.801 52.076c-4.111 7.184-1.626 16.339 5.551 20.459l39.586 22.726c-.435 5.648-.414 11.271.063 16.926l-39.45 22.906c-7.167 4.16-9.603 13.357-5.43 20.521l30.199 51.846c4.166 7.151 13.336 9.577 20.493 5.422l39.503-22.936c4.66 3.202 9.555 6.013 14.66 8.417l.112 45.626c.02 8.16 6.604 14.963 15.058 14.963l60-.23c8.276-.032 14.963-6.761 14.942-15.037l-.112-45.653c5.087-2.441 9.962-5.288 14.598-8.525l39.59 22.729c7.187 4.126 16.37 1.637 20.487-5.559l29.801-52.076c4.112-7.183 1.627-16.338-5.55-20.459z" fill="#ff7900"/><path d="m495.018 407.65-29.8 52.07c-4.12 7.2-13.3 9.69-20.49 5.56l-39.59-22.73c-4.64 3.24-9.51 6.09-14.6 8.53l.11 45.65c.03 8.28-6.66 15.01-14.94 15.04l-30.52.12v-311.01l29.48-.11c8.44 0 15.04 6.79 15.06 14.96l.11 45.63c5.11 2.4 10 5.22 14.66 8.42l39.51-22.94c7.15-4.15 16.32-1.73 20.49 5.42l30.2 51.85c4.17 7.16 1.74 16.36-5.43 20.52l-39.45 22.91c.49 5.81.48 11.44.06 16.92l39.59 22.73c7.18 4.12 9.66 13.27 5.55 20.46z" fill="#ff4800"/><path d="m345.364 401.386c-.058 0-.118 0-.175 0-24.734.002-44.902-20.072-44.997-44.827-.096-24.932 20.052-45.173 45.002-45.173 24.734 0 44.902 20.072 44.997 44.827.095 24.813-20.015 45.078-44.827 45.173z" fill="#edf5ff"/><path d="m390.188 356.21c.1 24.82-20.01 45.08-44.82 45.18h-.18v-90h.01c24.73 0 44.9 20.07 44.99 44.82z" fill="#cee8ff"/><path d="m277.593 121h-195c-8.284 0-15 6.716-15 15v60c0 8.284 6.716 15 15 15h195c8.284 0 15-6.716 15-15v-60c0-8.284-6.716-15-15-15z" fill="#cee8ff"/><path d="m292.598 136v60c0 8.28-6.72 15-15 15h-97.5v-90h97.5c8.28 0 15 6.72 15 15z" fill="#aedaff"/><path d="m82.593 91h195c8.284 0 15-6.716 15-15s-6.716-15-15-15h-195c-8.284 0-15 6.716-15 15s6.716 15 15 15z" fill="#cee8ff"/><path d="m292.598 76c0 8.28-6.72 15-15 15h-97.5v-30h97.5c8.28 0 15 6.72 15 15z" fill="#aedaff"/><path d="m180.593 241h-98c-8.284 0-15 6.716-15 15s6.716 15 15 15h98c8.284 0 15-6.716 15-15s-6.716-15-15-15z" fill="#cee8ff"/><path d="m195.598 256c0 8.28-6.72 15-15 15h-.5v-30h.5c8.28 0 15 6.72 15 15z" fill="#aedaff"/><g fill="#cee8ff"><path d="m152.593 301h-70c-8.284 0-15 6.716-15 15s6.716 15 15 15h70c8.284 0 15-6.716 15-15s-6.716-15-15-15z"/><path d="m152.593 361h-70c-8.284 0-15 6.716-15 15s6.716 15 15 15h70c8.284 0 15-6.716 15-15s-6.716-15-15-15z"/></g></g></svg>