<svg id="Capa_1" enable-background="new 0 0 511.998 511.998" height="512" viewBox="0 0 511.998 511.998" width="512" xmlns="http://www.w3.org/2000/svg"><g><path d="m219.879 467 24.535 38.356c5.986 8.924 19.155 8.844 25.025-.168l23.748-38.188-37.188-10z" fill="#004692"/><path d="m293.189 467-23.75 38.19c-3.13 4.81-8.35 7.07-13.44 6.78v-54.97z" fill="#00204d"/><path d="m330.499 407-74.5-10-74.5 10 38.38 60h73.308z" fill="#ffda2d"/><path d="m330.499 407-37.31 60h-37.19v-70z" fill="#ffaa17"/><path d="m330.499 290.59v116.41h-59.5l-15-10-15 10h-59.5v-116.41z" fill="#4ec9ff"/><path d="m330.499 290.59v116.41h-59.5l-15-10v-106.41z" fill="#0095ff"/><path d="m240.999 290.59h30v116.41h-30z" fill="#9bfcff"/><path d="m255.999 290.59h15v116.41h-15z" fill="#4ec9ff"/><path d="m459.145 191.981c19.431-57.843-31.19-118.318-93.918-104.652-11.176-49.67-55.797-87.329-109.478-87.329-53.418 0-98.096 37.063-109.19 87.386-62.476-13.867-113.827 46.451-94.169 104.702-24.201 5.78-42.391 26.825-42.391 53.482 0 30.338 24.682 55.02 55.02 55.02h381.96c30.338 0 55.02-24.682 55.02-55.02 0-26.831-18.454-47.981-42.854-53.589z" fill="#ffccbd"/><path d="m501.999 245.57c0 30.34-24.68 55.02-55.02 55.02h-190.98v-300.59c53.57.12 98.07 37.74 109.23 87.33 62.73-13.67 113.35 46.81 93.92 104.65 24.4 5.61 42.85 26.76 42.85 53.59z" fill="#ffbda9"/><path d="m446.979 270.59h-105.225c-22.527-.326-36.521-15.032-42.111-28.729-16.192-39.668 26.11-76.312 62.905-57.114 7.345 3.832 16.405.984 20.237-6.36 3.832-7.345.984-16.405-6.36-20.237-61.902-32.295-131.145 29.909-104.558 95.049 2.587 6.339 5.893 12.161 9.807 17.392h-51.85c3.913-5.231 7.219-11.052 9.807-17.392 26.596-65.162-42.683-127.33-104.558-95.049-7.345 3.832-10.192 12.893-6.36 20.237s12.892 10.193 20.237 6.36c36.775-19.189 79.105 17.423 62.905 57.114-5.59 13.696-19.584 28.402-42.111 28.729h-104.725c-13.796 0-25.02-11.224-25.02-25.02 0-16.609 15.098-27.082 29.303-24.676 24.267 27.72 68.535 36.286 103.593 16.238 7.192-4.112 9.688-13.276 5.576-20.467-4.113-7.192-13.277-9.688-20.467-5.576-42.211 24.138-92.445-16.014-77.023-61.209 10.078-29.535 43.843-42.84 71.184-28.847 9.711 4.969 21.369-1.787 21.822-12.732 1.816-43.907 37.731-78.3 81.763-78.3 44.076 0 80.145 34.338 82.115 78.173.488 10.857 12.029 17.61 21.733 12.723 27.07-13.635 60.846-.752 70.958 29.083 15.364 45.333-35.015 85.151-77.061 61.108-7.191-4.113-16.356-1.615-20.467 5.576-4.112 7.191-1.616 16.355 5.576 20.467 34.289 19.607 76.949 12.69 103.319-16.09 14.303-2.906 30.077 7.473 30.077 24.528-.001 13.797-11.225 25.021-25.021 25.021z" fill="#ffede4"/><path d="m471.999 245.57c0 13.8-11.22 25.02-25.02 25.02h-105.23c-22.52-.33-36.52-15.03-42.11-28.73-16.19-39.67 26.11-76.31 62.91-57.11 7.34 3.83 16.4.98 20.24-6.36 3.83-7.35.98-16.41-6.36-20.24-61.91-32.3-131.15 29.91-104.56 95.05 2.59 6.34 5.89 12.16 9.8 17.39h-25.67v-240.59c43.97.13 79.9 34.42 81.87 78.17.48 10.86 12.02 17.61 21.73 12.73 27.07-13.64 60.84-.76 70.96 29.08 15.36 45.33-35.02 85.15-77.06 61.11-7.2-4.11-16.36-1.62-20.47 5.57-4.11 7.2-1.62 16.36 5.57 20.47 34.29 19.61 76.95 12.69 103.32-16.09 14.31-2.9 30.08 7.47 30.08 24.53z" fill="#ffddce"/></g></svg>