<svg id="Capa_1" enable-background="new 0 0 512 512" height="512" viewBox="0 0 512 512" width="512" xmlns="http://www.w3.org/2000/svg"><g><path d="m355.5 422h-24.5v-66.54h-60v35.54c0 8.28-6.72 15-15 15s-15-6.72-15-15v-35.54h-60v66.54h-25.09c-19.03.32-34.41 15.9-34.41 35v40c0 8.28 6.72 15 15 15h239c8.28 0 15-6.72 15-15v-40c0-19.3-15.7-35-35-35z" fill="#cee8ff"/><path d="m390.5 457v40c0 8.28-6.72 15-15 15h-119.5v-106c8.28 0 15-6.72 15-15v-35.54h60v66.54h24.5c19.3 0 35 15.7 35 35z" fill="#aedaff"/><path d="m497 0h-482c-8.284 0-15 6.716-15 15v331c0 8.284 6.716 15 15 15h482c8.284 0 15-6.716 15-15v-331c0-8.284-6.716-15-15-15z" fill="#004692"/><path d="m512 15v331c0 8.28-6.72 15-15 15h-241v-361h241c8.28 0 15 6.72 15 15z" fill="#00204d"/><path d="m30 30h452v301h-452z" fill="#4ec9ff"/><path d="m256 30h226v301h-226z" fill="#0095ff"/><path d="m256 171-84.813 94.813c21.729 21.729 51.729 35.187 84.813 35.187 66.168 0 120-53.832 120-120z" fill="#ffda2d"/><path d="m376 181c0 66.17-53.83 120-120 120v-130z" fill="#ffaa17"/><path d="m256 61v120h120c0-66.168-53.832-120-120-120z" fill="#00e97b"/><path d="m256 61c-66.168 0-120 53.832-120 120 0 33.084 13.458 63.084 35.187 84.813l84.813-84.813z" fill="#e63950"/></g></svg>