<svg id="Capa_1" enable-background="new 0 0 512.006 512.006" height="512" viewBox="0 0 512.006 512.006" width="512" xmlns="http://www.w3.org/2000/svg"><g><path d="m103.674 60.018-27.66 75.998 60.402 9.999 59.595-9.999-27.659-75.998-32.647-10z" fill="#ffede4"/><path d="m196.011 136.016-59.598 9.999-.4-.07v-95.837l32.339 9.91z" fill="#ffddce"/><path d="m150.071 9.79c-4.83-12.987-23.281-13.005-28.117 0l-18.28 50.227h64.678z" fill="#004692"/><path d="m168.352 60.018h-32.339v-59.979c5.82 0 11.64 3.25 14.06 9.75z" fill="#00204d"/><path d="m486.397 4.413-481.987 481.987c-9.417 9.417-2.746 25.606 10.606 25.606h481.987c8.284 0 15-6.716 15-15v-481.987c0-13.32-16.169-20.047-25.606-10.606zm-64.392 417.595h-225.928l225.928-225.928z" fill="#cee8ff"/><path d="m486.394 4.409-230.384 230.384v127.287l165.996-165.996v225.924h-165.996v89.998h240.994c8.28 0 15-6.72 15-15v-481.987c-.001-13.32-16.171-20.05-25.61-10.61z" fill="#aedaff"/><path d="m196.011 136.016h-119.997v284.992l10 15h99.997l10-15z" fill="#00e97b"/><path d="m196.011 136.016v284.992l-10 15h-49.998v-299.992z" fill="#00ca7d"/><path d="m86.014 436.008-10 15v45.999c0 8.284 6.716 15 15 15h89.998c8.284 0 15-6.716 15-15v-45.999l-10-15z" fill="#00e97b"/><path d="m196.011 451.007v45.999c0 8.28-6.72 15-15 15h-44.999v-75.998h49.999z" fill="#00ca7d"/><path d="m375.007 15.019v75.998l-10 15.538 10 14.461v30.999l-10 14.538 10 15.461v28.999l-10 15.23 10 14.769v30.999l-10 16.076 10 13.923v30.999l-10 15.692 10 14.307v30.999l-10 15.307 10 14.692v72.998c0 8.28-6.72 15-15 15h-118.997c-8.28 0-15-6.72-15-15v-481.985c0-8.28 6.72-15 15-15h118.997c8.28 0 15 6.72 15 15z" fill="#ffda2d"/><path d="m375.007 91.017-10 15.54 10 14.46v30.999l-10 14.54 10 15.46v28.999l-10 15.23 10 14.77v30.999l-10 16.08 10 13.92v30.999l-10 15.69 10 14.31v30.999l-10 15.31 10 14.69v72.998c0 8.28-6.72 15-15 15h-59.498v-511.991h59.498c8.28 0 15 6.72 15 15z" fill="#ffaa17"/><g fill="#ff7900"><path d="m375.007 152.015v29.999h-54.999c-8.28 0-15-6.72-15-15s6.72-15 15-15h54.999z"/><path d="m375.007 91.017v29.999h-54.999c-8.28 0-15-6.72-15-15s6.72-15 15-15h54.999z"/><path d="m375.007 394.009v29.999h-54.999c-8.28 0-15-6.72-15-15s6.72-15 15-15h54.999z"/><path d="m375.007 333.01v29.999h-54.999c-8.28 0-15-6.72-15-15s6.72-15 15-15h54.999z"/><path d="m375.007 272.012v29.999h-54.999c-8.28 0-15-6.72-15-15s6.72-15 15-15h54.999z"/><path d="m375.007 211.014v29.999h-54.999c-8.28 0-15-6.72-15-15s6.72-15 15-15h54.999z"/></g><path d="m76.014 421.008h119.997v29.999h-119.997z" fill="#004692"/><path d="m136.013 421.008h59.998v29.999h-59.998z" fill="#00204d"/></g></svg>