<svg id="Capa_1" enable-background="new 0 0 512 512" height="512" viewBox="0 0 512 512" width="512" xmlns="http://www.w3.org/2000/svg"><g><path d="m467 15.478h-422c-24.813 0-45 20.187-45 45v270c0 24.813 20.187 45 45 45h258v4.411c0 37.658-22.093 72.188-56.286 87.97-15.957 7.365-8.241 31.725 9.154 28.343 8.797-3.872 125.179-6.214 159.283-120.724h51.849c24.813 0 45-20.187 45-45v-270c0-24.813-20.187-45-45-45z" fill="#4ec9ff"/><path d="m512 60.478v270c0 24.81-20.19 45-45 45h-51.85c-34.278 115.113-151.714 116.937-159.28 120.72-17.4 3.39-25.11-20.97-9.16-28.34 34.169-15.755 56.29-50.281 56.29-87.97v-4.41h-47v-360h211c24.81 0 45 20.19 45 45z" fill="#0095ff"/><circle cx="337" cy="196.324" fill="#e63950" r="120"/><path d="m457 196.328c0 66.16-53.83 120-120 120v-240c66.17 0 120 53.83 120 120z" fill="#cd0000"/><circle cx="297" cy="166.324" fill="#004692" r="15"/><circle cx="376" cy="166.324" fill="#00204d" r="15"/><path d="m376.068 224.006c-22.896-19.647-55.245-19.66-78.161.021-6.285 5.398-7.004 14.868-1.606 21.152 5.407 6.295 14.877 6.996 21.152 1.606 11.661-10.016 27.402-10.032 39.079-.012 6.286 5.394 15.756 4.671 21.152-1.616 5.395-6.286 4.671-15.756-1.616-21.151z" fill="#004692"/><path d="m377.68 245.158c-5.39 6.29-14.86 7.01-21.15 1.62-5.83-5.01-12.68-7.51-19.53-7.51v-30c13.81 0 27.62 4.92 39.07 14.74 6.29 5.39 7.01 14.86 1.61 21.15z" fill="#00204d"/><circle cx="180" cy="196.324" fill="#ffda2d" r="120"/><path d="m300 196.328c0 66.16-53.83 120-120 120v-240c66.17 0 120 53.83 120 120z" fill="#ffaa17"/><circle cx="140" cy="166.324" fill="#004692" r="15"/><circle cx="219" cy="166.324" fill="#00204d" r="15"/><path d="m220.684 219.572c-5.396-6.287-14.866-7.01-21.152-1.616-11.664 10.009-27.406 10.014-39.079-.012-6.283-5.396-15.754-4.678-21.152 1.606-5.397 6.284-4.678 15.754 1.606 21.152 22.89 19.658 55.237 19.691 78.161.021 6.287-5.394 7.011-14.864 1.616-21.151z" fill="#004692"/><path d="m219.07 240.728c-11.46 9.83-25.27 14.74-39.07 14.74v-30c6.85 0 13.7-2.51 19.53-7.51 6.29-5.4 15.76-4.67 21.15 1.61 5.4 6.29 4.68 15.76-1.61 21.16z" fill="#00204d"/></g></svg>