<svg xmlns="http://www.w3.org/2000/svg" viewBox="0 0 181.9 44"><path fill="#9aadb8" d="M154.2 2.2c-.8 0-2.1-.9-2.8-.9-.5 0-.8.3-1.1 1.1l-.7-.2c.4-1.6 1-2 1.8-2s2.1.9 2.8.9c.5 0 .8-.3 1.1-1.1l.7.2c-.4 1.6-.9 2-1.8 2zm-22 18.2l-1.6 2.3 1.2.6 1.4-2.8m-62.1.2h-8.8V4.3h8.8c2.4 0 4.7.8 6.3 2.3 1.6 1.5 2.4 3.6 2.4 5.8 0 2.3-.9 4.3-2.4 5.8-1.6 1.7-3.8 2.5-6.3 2.5zm-7.6-1.1h7.7c4.4 0 7.6-3 7.6-7.1s-3.2-7-7.6-7h-7.7v14.1zM8.6 20.8c-4.7 0-8.6-3.7-8.6-8.3s3.9-8.3 8.6-8.3c1.9 0 3.9.7 5.5 2l-.7.9C12 6 10.3 5.4 8.6 5.4c-4.1 0-7.5 3.2-7.5 7.1s3.2 7.1 7.3 7.1c2.2 0 4.3-.9 5.5-2.5v-4.3H9.6v-1h5.6v5.6l-.1.3v.1c-1.6 1.9-4 3-6.5 3zm83.1-.1c-4.8 0-8.5-3.8-8.5-8.8V4.6h1.2V12c0 2.2.8 4.1 2.1 5.5 1.3 1.4 3.1 2.1 5.1 2.1 4 0 7-3.1 7-7.6V4.6h1V12c0 2.5-.7 4.7-2.2 6.3-1.5 1.5-3.5 2.4-5.7 2.4z"/><path fill="#9aadb8" d="M134.4 20.7h-1.1c-2.1-.2-4.1-1.1-5.6-2.6s-2.4-3.5-2.4-5.6c0-2.2 1-4.3 2.6-5.8s3.8-2.4 6.1-2.4c2 0 4 .7 5.6 2l-.7.9c-1.4-1.1-3.1-1.7-4.8-1.7-4.1 0-7.5 3.2-7.5 7.1 0 1.8.7 3.5 2 4.8 1.3 1.3 3 2.1 4.9 2.3h1c1.6-.1 3.2-.7 4.5-1.7l.7.9c-1.6 1-3.5 1.7-5.3 1.8zm39.1.1c-4.7 0-8.5-3.7-8.5-8.3s3.8-8.3 8.5-8.3 8.5 3.7 8.5 8.3-3.9 8.3-8.5 8.3zm0-15.5c-4.1 0-7.4 3.2-7.4 7.2s3.3 7.2 7.4 7.2c4.1 0 7.4-3.2 7.4-7.2s-3.4-7.2-7.4-7.2zm-50.3 15.4l-3.1-4.9-1 .6 2.8 4.3zm-20.4 0l9.4-15.4h.1l5.1 8.3 1-.5-5.5-8.8h-1.3l-10.1 16.4zm-43.3 0l-3.2-4.9-.9.6 2.7 4.3zm-20.4 0l9.4-15.4 5.2 8.3.9-.5-5.4-8.8h-1.3L37.8 20.7zm124.9 0l-3.1-4.9-1 .6 2.8 4.3zm-20.4 0L153 5.3h.1l5.1 8.3 1-.5-5.5-8.8h-1.3l-10.1 16.4zm-123.3 0V5.3h8.5c3.2 0 4.9 1.6 4.9 4.2 0 1.3-.4 2.4-1.5 3.2-1 .7-2.3 1.1-3.8 1.1h-1.6l6.6 6.9h1.5l-5.6-5.8c1.4-.1 2.6-.6 3.5-1.3 1.3-1 2-2.4 2-4.1 0-3.2-2.4-5.2-6.2-5.2h-9.8v16.4h1.5z"/><path fill="#ed145b" d="M52.6 44H54v-3.2h4v-1.3h-4v-2.1h4.5v-1.3h-5.9zM64 36.1h1.4V44H64zm10.3-.1l-3.5 8h1.4l.8-1.9h3.7l.8 1.9H79l-3.5-8h-1.2zm-.8 4.9l1.4-3.2 1.4 3.2h-2.8zm13.9-4.8h-3.1V44h1.4v-2.5h1.6c1.7 0 3.2-.9 3.2-2.7-.1-1.7-1.2-2.7-3.1-2.7zm-.1 4.1h-1.6v-2.8h1.6c1 0 1.7.5 1.7 1.4 0 .8-.6 1.4-1.7 1.4zM1.5 37.1h40.8v6.3H1.5z"/></svg>