<svg id="Capa_1" enable-background="new 0 0 512.002 512.002" height="512" viewBox="0 0 512.002 512.002" width="512" xmlns="http://www.w3.org/2000/svg"><g><path d="m48.147.001c-26.591 0-48.147 21.556-48.147 48.146v418.853c0 8.284 6.716 15 15 15h301c8.284 0 15-6.716 15-15v-464z" fill="#edf5ff"/><path d="m331 3.001v464c0 8.28-6.72 15-15 15h-150.5v-480.76z" fill="#cee8ff"/><path d="m48.115.001h280.232c26.601 0 48.166 21.565 48.166 48.166v28.3c0 8.284-6.716 15-15 15h-250.232c-8.284 0-15-6.716-15-15v-28.3c0-26.602-21.565-48.166-48.166-48.166z" fill="#cee8ff"/><path d="m376.51 48.171v28.3c0 8.28-6.71 15-15 15h-196.01v-91.47h162.85c26.6 0 48.16 21.56 48.16 48.17z" fill="#aedaff"/><g fill="#00e97b"><path d="m98.393 154.894-18.893 18.893-4.394-4.393c-5.857-5.858-15.355-5.858-21.213 0s-5.858 15.355 0 21.213l15 15c5.857 5.858 15.355 5.859 21.213 0l29.5-29.5c5.858-5.858 5.858-15.355 0-21.213-5.857-5.858-15.355-5.858-21.213 0z"/><path d="m98.393 245.894-18.893 18.894-4.394-4.394c-5.857-5.857-15.355-5.857-21.213 0s-5.858 15.355 0 21.213l15 15c5.859 5.858 15.355 5.858 21.213 0l29.5-29.5c5.858-5.857 5.858-15.355 0-21.213-5.857-5.858-15.355-5.858-21.213 0z"/><path d="m98.393 335.484-18.893 18.894-4.394-4.394c-5.857-5.857-15.355-5.857-21.213 0s-5.858 15.355 0 21.213l15 15c5.859 5.858 15.355 5.858 21.213 0l29.5-29.5c5.858-5.857 5.858-15.355 0-21.213-5.857-5.857-15.355-5.857-21.213 0z"/><path d="m164.5 196.001h102c8.284 0 15-6.716 15-15s-6.716-15-15-15h-102c-8.284 0-15 6.716-15 15s6.716 15 15 15z"/></g><path d="m281.5 181.001c0 8.28-6.72 15-15 15h-101v-30h101c8.28 0 15 6.72 15 15z" fill="#00ca7d"/><path d="m266.5 256.001h-102c-8.284 0-15 6.716-15 15s6.716 15 15 15h102c8.284 0 15-6.716 15-15s-6.716-15-15-15z" fill="#00e97b"/><path d="m281.5 271.001c0 8.28-6.72 15-15 15h-101v-30h101c8.28 0 15 6.72 15 15z" fill="#00ca7d"/><path d="m266.5 345.591h-102c-8.284 0-15 6.716-15 15s6.716 15 15 15h102c8.284 0 15-6.716 15-15s-6.716-15-15-15z" fill="#00e97b"/><path d="m281.5 360.591c0 8.28-6.72 15-15 15h-101v-30h101c8.28 0 15 6.72 15 15z" fill="#00ca7d"/><circle cx="331.449" cy="367.001" fill="#ff7900" r="145"/><path d="m476.45 367.001c0 79.95-65.05 145-145 145v-290c79.95 0 145 65.05 145 145z" fill="#ff4800"/><circle cx="331.449" cy="367.001" fill="#ffda2d" r="115"/><path d="m446.45 367.001c0 63.41-51.59 115-115 115v-230c63.41 0 115 51.59 115 115z" fill="#ffaa17"/><circle cx="331.449" cy="367.001" fill="#ff7900" r="80"/><path d="m411.45 367.001c0 44.11-35.89 80-80 80v-160c44.11 0 80 35.89 80 80z" fill="#ff4800"/><circle cx="331.449" cy="367.001" fill="#ffda2d" r="50"/><path d="m381.45 367.001c0 27.57-22.43 50-50 50v-100c27.57 0 50 22.43 50 50z" fill="#ffaa17"/><path d="m501.744 243.788-35.312-11.77-11.77-35.312c-3.519-10.557-16.954-13.745-24.837-5.863l-53.033 53.033c-4.018 4.017-5.42 9.96-3.624 15.35l11.211 33.632-63.536 63.536c-5.858 5.857-5.858 15.355 0 21.213 5.858 5.859 15.355 5.858 21.213 0l63.536-63.536c34.508 11.238 34.112 11.98 38.373 11.98 3.916 0 7.75-1.534 10.608-4.394l53.033-53.033c7.87-7.867 4.713-21.311-5.862-24.836z" fill="#0066b2"/><path d="m507.61 268.621-53.04 53.04c-2.86 2.86-6.69 4.39-10.61 4.39-4.26 0-3.86-.74-38.37-11.98l-63.53 63.54c-2.93 2.93-6.77 4.39-10.61 4.39v-36.22l52.93-52.92-11.21-33.63c-1.8-5.39-.4-11.34 3.62-15.35l53.04-53.04c7.88-7.88 21.31-4.69 24.83 5.87l11.77 35.31 35.31 11.77c10.58 3.52 13.74 16.97 5.87 24.83z" fill="#004692"/></g></svg>