<svg id="Capa_1" enable-background="new 0 0 512 512" height="512" viewBox="0 0 512 512" width="512" xmlns="http://www.w3.org/2000/svg"><g><path d="m497 166.5h-482c-8.284 0-15 6.716-15 15v300c0 8.284 6.716 15 15 15h482c8.284 0 15-6.716 15-15v-300c0-8.284-6.716-15-15-15z" fill="#004692"/><path d="m512 181.5v300c0 8.28-6.72 15-15 15h-241v-330h241c8.28 0 15 6.72 15 15z" fill="#00204d"/><g fill="#0066b2"><path d="m30 286.5h60v90h-60z"/><path d="m30 196.5h60v60h-60z"/><path d="m30 406.5h60v60h-60z"/><path d="m120 196.5h362v270h-362z"/></g><path d="m256 196.5h226v270h-226z" fill="#004692"/><path d="m391 225.5c-33.084 0-60 26.916-60 60v91c0 16.542-13.458 30-30 30h-44.615c-8.284 0-15 6.716-15 15s6.716 15 15 15h44.615c33.084 0 60-26.916 60-60v-91c0-16.542 13.458-30 30-30s30 13.458 30 30v16c0 8.284 6.716 15 15 15s15-6.716 15-15v-16c0-33.084-26.916-60-60-60z" fill="#0095ff"/><path d="m301 30.5v76l-10 15.423 10 14.577v224c0 2.27-.52 4.51-1.51 6.55l-29.61 61c-2.5 5.14-7.7 8.42-13.42 8.45h-.08c-5.68 0-10.88-3.22-13.42-8.31l-30.39-61c-1.03-2.08-1.57-4.37-1.57-6.69v-224l10-15.397-10-14.603v-76c0-8.28 6.72-15 15-15h60c8.28 0 15 6.72 15 15z" fill="#ffda2d"/><path d="m301 106.5-10 15.42 10 14.58v224c0 2.27-.52 4.51-1.51 6.55l-29.61 61c-2.5 5.14-7.7 8.42-13.42 8.45h-.08c-.13 0-.25 0-.38-.01v-420.99h30c8.28 0 15 6.72 15 15z" fill="#ffaa17"/><path d="m211 106.5h90v30h-90z" fill="#ff7900"/><path d="m256 106.5h45v30h-45z" fill="#ff4800"/></g></svg>