<svg id="Capa_1" enable-background="new 0 0 512 512" height="512" viewBox="0 0 512 512" width="512" xmlns="http://www.w3.org/2000/svg"><g><path d="m55.646 0c-26.591 0-48.146 21.556-48.146 48.147v448.853c0 8.284 6.716 15 15 15h346c8.284 0 15-6.716 15-15v-494z" fill="#edf5ff"/><path d="m383.5 3v494c0 8.28-6.72 15-15 15h-173.5v-510.76z" fill="#cee8ff"/><path d="m55.614 0h325.232c26.601 0 48.166 21.565 48.166 48.166v28.3c0 8.284-6.716 15-15 15h-295.232c-8.284 0-15-6.716-15-15v-28.3c0-26.601-21.564-48.166-48.166-48.166z" fill="#cee8ff"/><path d="m429.01 48.17v28.3c0 8.28-6.71 15-15 15h-219.01v-91.47h185.85c26.6 0 48.16 21.56 48.16 48.17z" fill="#aedaff"/><path d="m233.5 211v-45c0-8.284-6.716-15-15-15h-120c-8.284 0-15 6.716-15 15v120c0 8.284 6.716 15 15 15h45z" fill="#ffda2d"/><path d="m233.5 166v45l-38 38v-98h23c8.28 0 15 6.72 15 15z" fill="#ffaa17"/><path d="m278.5 211h-45l-90 90v45c0 8.284 6.716 15 15 15h120c8.284 0 15-6.716 15-15v-120c0-8.284-6.715-15-15-15z" fill="#ff7900"/><path d="m293.5 226v120c0 8.28-6.72 15-15 15h-83v-112l38-38h45c8.28 0 15 6.72 15 15z" fill="#ff4800"/><path d="m233.5 256v-45h-45c-24.813 0-45 20.187-45 45v45h45c24.814 0 45-20.187 45-45z" fill="#ffaa17"/><path d="m233.5 211v45c0 22.43-16.5 41.08-38 44.45v-89.45z" fill="#ff7900"/><path d="m504.5 198v208l-10 14.692 10 15.308v61c0 8.28-6.72 15-15 15h-60c-8.28 0-15-6.72-15-15v-61l10-15.308-10-14.692v-208c0-2.27.51-4.51 1.51-6.55l29.61-61c5.435-11.174 21.35-11.301 26.92-.14l30.39 61c1.03 2.08 1.57 4.37 1.57 6.69z" fill="#ffda2d"/><path d="m504.5 406-10 14.69 10 15.31v61c0 8.28-6.72 15-15 15h-30v-389.98c5.19.12 10.33 2.87 13.04 8.29l30.39 61c1.03 2.08 1.57 4.37 1.57 6.69z" fill="#ffaa17"/><path d="m414.5 406h90v30h-90z" fill="#4ec9ff"/><path d="m459.5 406h45v30h-45z" fill="#0095ff"/><path d="m285.5 391h-180c-8.284 0-15 6.716-15 15s6.716 15 15 15h180c8.284 0 15-6.716 15-15s-6.716-15-15-15z" fill="#cee8ff"/><path d="m300.5 406c0 8.28-6.72 15-15 15h-90v-30h90c8.28 0 15 6.72 15 15z" fill="#aedaff"/></g></svg>