<svg id="Capa_1" enable-background="new 0 0 512 512" height="512" viewBox="0 0 512 512" width="512" xmlns="http://www.w3.org/2000/svg"><g><path d="m497 421h-46v-330h45c8.284 0 15-6.716 15-15s-6.716-15-15-15h-45v-46c0-8.284-6.716-15-15-15s-15 6.716-15 15v46h-330v-46c0-8.284-6.716-15-15-15s-15 6.716-15 15v46h-45c-8.284 0-15 6.716-15 15s6.716 15 15 15h45v330h-46c-8.284 0-15 6.716-15 15s6.716 15 15 15h46v46c0 8.284 6.716 15 15 15s15-6.716 15-15v-46h330v46c0 8.284 6.716 15 15 15s15-6.716 15-15v-46h46c8.284 0 15-6.716 15-15s-6.716-15-15-15z" fill="#004692"/><path d="m512 436c0 8.28-6.72 15-15 15h-46v46c0 8.28-6.72 15-15 15s-15-6.72-15-15v-46h-165v-390h165v-46c0-8.28 6.72-15 15-15s15 6.72 15 15v46h45c8.28 0 15 6.72 15 15s-6.72 15-15 15h-45v330h46c8.28 0 15 6.72 15 15z" fill="#00204d"/><path d="m361 180.5h60v60h-60z" fill="#ffaa17"/><path d="m271 180.5h60v60h-60z" fill="#ffaa17"/><path d="m271 91h60v59.5h-60z" fill="#ffaa17"/><g fill="#ffda2d"><path d="m181 91h60v59.5h-60z"/><path d="m181 180.5h60v60h-60z"/><path d="m91 180.5h60v60h-60z"/><path d="m91 270.5h60v60h-60z"/><path d="m181 270.5h60v60h-60z"/><path d="m181 360.5h60v60.5h-60z"/></g><path d="m271 360.5h60v60.5h-60z" fill="#ffaa17"/><path d="m271 270.5h60v60h-60z" fill="#ffaa17"/><path d="m361 270.5h60v60h-60z" fill="#ffaa17"/><path d="m361 91h60v59.5h-60z" fill="#ffaa17"/><path d="m91 91h60v59.5h-60z" fill="#ffda2d"/><path d="m91 360.5h60v60.5h-60z" fill="#ffda2d"/><path d="m361 360.5h60v60.5h-60z" fill="#ffaa17"/></g></svg>