<svg id="Capa_1" enable-background="new 0 0 512.043 512.043" height="512" viewBox="0 0 512.043 512.043" width="512" xmlns="http://www.w3.org/2000/svg"><g><path d="m242.175 34.423h-16.654c-5.51 0-10 4.49-10 10v4.83c-39.64-25.84-91.04-25.65-130.5.57v-5.4c0-5.51-4.49-10-10-10h-15.615l-.035-3.1c53.8-41.82 129.09-41.75 182.81.13z" fill="#4ec9ff"/><path d="m389.171 307.262-46.88 85.32-86.27 10-86.27-10-46.88-85.32c-2.61-4.76-2.45-10.56.43-15.17l111.33-178.2h42.78l111.33 178.2c2.88 4.61 3.04 10.411.43 15.17z" fill="#ffda2d"/><path d="m389.171 307.262-46.88 85.32-86.27 10v-288.69h21.39l111.33 178.2c2.88 4.61 3.04 10.411.43 15.17z" fill="#ffaa17"/><path d="m452.533 114.423.139 4.58c-53.81 41.82-129.09 41.75-182.81-.13l-.096-4.45h15.756c5.51 0 10-4.49 10-10v-4.01c39.77 26.5 91.71 26.54 131.5.09v3.92c0 5.51 4.49 10 10 10z" fill="#0095ff"/><path d="m169.75 392.578-8.729 29.233v75.231c0 8.284 6.716 15 15 15h160c8.284 0 15-6.716 15-15v-75.231l-8.729-29.233z" fill="#004692"/><path d="m351.021 421.813v75.23c0 8.28-6.72 15-15 15h-80v-119.46h86.27z" fill="#00204d"/><path d="m300.021 287.043c0 24.26-19.74 44-44 44s-44-19.74-44-44c0-19 12.1-35.22 29-41.36v-131.79h30v131.79c16.9 6.14 29 22.36 29 41.36z" fill="#edf5ff"/><path d="m300.021 287.043c0 24.26-19.74 44-44 44v-217.15h15v131.79c16.9 6.14 29 22.36 29 41.36z" fill="#cee8ff"/><path d="m75.021 29.422h-60c-8.284 0-15 6.716-15 15v60c0 8.284 6.716 15 15 15h60c8.284 0 15-6.716 15-15v-60c0-8.284-6.716-15-15-15z" fill="#9bfcff"/><path d="m497.021 29.422h-60c-8.284 0-15 6.716-15 15v60c0 8.284 6.716 15 15 15h60c8.284 0 15-6.716 15-15v-60c0-8.284-6.716-15-15-15z" fill="#4ec9ff"/><path d="m285.521 29.422h-60c-8.284 0-15 6.716-15 15v60c0 8.284 6.716 15 15 15h60c8.284 0 15-6.716 15-15v-60c0-8.284-6.716-15-15-15z" fill="#9bfcff"/><path d="m300.521 44.423v60c0 8.28-6.72 15-15 15h-29.5v-90h29.5c8.28 0 15 6.72 15 15z" fill="#4ec9ff"/></g></svg>