<svg id="Capa_1" enable-background="new 0 0 512 512" height="512" viewBox="0 0 512 512" width="512" xmlns="http://www.w3.org/2000/svg"><g><path d="m447 0h-382c-35.841 0-65 29.159-65 65v382c0 35.841 29.159 65 65 65h382c35.841 0 65-29.159 65-65v-382c0-35.841-29.159-65-65-65z" fill="#edf5ff"/><path d="m512 65v382c0 35.84-29.16 65-65 65h-191v-512h191c35.84 0 65 29.16 65 65z" fill="#cee8ff"/><path d="m436 61h-360c-8.284 0-15 6.716-15 15v360c0 8.284 6.716 15 15 15h360c8.284 0 15-6.716 15-15v-360c0-8.284-6.716-15-15-15z" fill="#4ec9ff"/><path d="m451 76v360c0 8.28-6.72 15-15 15h-130l-50-10.51v-379.49h180c8.28 0 15 6.72 15 15z" fill="#0095ff"/><path d="m271 323.54v127.46h-30v-127.46c9.73 3.28 20.25 3.28 30 0z" fill="#00e97b"/><path d="m271 323.54v127.46h-15v-125c5.07 0 10.12-.82 15-2.46z" fill="#00ca7d"/><path d="m346 361h-20c-30.376 0-55 24.624-55 55v35h35c30.376 0 55-24.624 55-55v-20c0-8.284-6.716-15-15-15z" fill="#00e97b"/><path d="m186 361h-20c-8.284 0-15 6.716-15 15v20c0 30.376 24.624 55 55 55h35v-35c0-30.376-24.624-55-55-55z" fill="#32fca5"/><path d="m301.461 147.259c-20.24-34.934-70.659-34.975-90.923 0-40.374.058-65.618 43.706-45.461 78.741-20.137 35 5.044 78.685 45.461 78.741 20.24 34.934 70.659 34.975 90.923 0 40.373-.058 65.619-43.706 45.461-78.741 20.135-34.995-5.043-78.685-45.461-78.741z" fill="#ffda2d"/><path d="m301.46 304.74c-10.13 17.49-27.8 26.22-45.46 26.22v-209.92c17.67 0 35.34 8.75 45.46 26.22 40.42.05 65.6 43.75 45.46 78.74 20.16 35.04-5.09 78.68-45.46 78.74z" fill="#ffaa17"/><circle cx="256" cy="226" fill="#ff7900" r="45"/><path d="m301 226c0 24.81-20.19 45-45 45v-90c24.81 0 45 20.19 45 45z" fill="#ff4800"/></g></svg>