<svg id="Capa_1" enable-background="new 0 0 512.001 512.001" height="512" viewBox="0 0 512.001 512.001" width="512" xmlns="http://www.w3.org/2000/svg"><g><path d="m166.549 497c0 8.547 7.092 15.125 15.094 15l148.902-.929c8.247-.051 14.906-6.752 14.906-15v-58.071l-89.45-8.069-89.453 8.069z" fill="#cee8ff"/><path d="m345.451 438v58.07c0 8.25-6.66 14.95-14.91 15l-74.54.47v-81.61z" fill="#aedaff"/><path d="m359.976 384.923c38.479-31.411 60.547-77.886 60.547-127.506 0-90.929-73.578-164.522-164.514-164.522-.357 0-.721.001-1.079.003-89.388.569-161.525 71.522-163.415 160.97-1.077 51.072 21.018 98.872 60.618 131.144 9.162 7.466 14.416 11.31 14.416 22.988l10.067 14.931h158.836l10-14.931c0-11.863 5.294-15.541 14.524-23.077z" fill="#ffda2d"/><path d="m420.521 257.42c0 49.62-22.07 96.09-60.54 127.5-9.23 7.54-14.53 11.22-14.53 23.08l-10 14.93h-79.45v-330.03h.01c90.93 0 164.51 73.59 164.51 164.52z" fill="#ffaa17"/><g><path d="m172.002 208.059v94.3c0 1.895 1.071 3.627 2.766 4.473l81.237 40.562 4.998-49.881-5.002-46.763-39.869-25.263z" fill="#e63950"/><path d="m340 207.801-83.999 42.949.005 96.645 81.173-39.288c1.726-.835 2.822-2.583 2.822-4.501v-95.805z" fill="#cd0000"/><path d="m340 207.801-83.999-43.389-83.999 43.647 83.999 42.691z" fill="#ff637b"/><path d="m340.001 207.8-84 42.95v-86.34z" fill="#e63950"/></g><path d="m46.001 240.932h-31c-8.284 0-15 6.716-15 15s6.716 15 15 15h31c8.284 0 15-6.716 15-15s-6.716-15-15-15z" fill="#ffda2d"/><path d="m497.001 240.932h-31c-8.284 0-15 6.716-15 15s6.716 15 15 15h31c8.284 0 15-6.716 15-15s-6.716-15-15-15z" fill="#ffaa17"/><path d="m256.001 0c-8.284 0-15 6.716-15 15v31c0 8.284 6.716 15 15 15s15-6.716 15-15v-31c0-8.284-6.716-15-15-15z" fill="#ffda2d"/><path d="m271.001 15v31c0 8.28-6.72 15-15 15v-61c8.28 0 15 6.72 15 15z" fill="#ffaa17"/><path d="m96.194 74.912c-5.857-5.857-15.355-5.858-21.213 0s-5.858 15.355 0 21.213l21.921 21.92c5.857 5.857 15.355 5.858 21.213 0s5.858-15.355 0-21.213z" fill="#ffda2d"/><path d="m415.099 393.817c-5.857-5.857-15.355-5.858-21.213 0s-5.858 15.355 0 21.213l21.921 21.92c5.857 5.857 15.355 5.858 21.213 0s5.858-15.355 0-21.213z" fill="#ffaa17"/><path d="m96.902 393.817-21.921 21.92c-5.858 5.858-5.858 15.355 0 21.213 5.857 5.858 15.354 5.858 21.213 0l21.921-21.92c5.858-5.858 5.858-15.355 0-21.213-5.857-5.857-15.355-5.858-21.213 0z" fill="#ffda2d"/><path d="m415.807 74.912-21.921 21.92c-5.858 5.858-5.858 15.355 0 21.213 5.857 5.858 15.354 5.858 21.213 0l21.921-21.92c5.858-5.858 5.858-15.355 0-21.213-5.857-5.857-15.355-5.858-21.213 0z" fill="#ffaa17"/><path d="m166.549 408h178.901v30h-178.901z" fill="#edf5ff"/><path d="m256.001 408h89.45v30h-89.45z" fill="#cee8ff"/></g></svg>