<svg id="Capa_1" enable-background="new 0 0 512 512" height="512" viewBox="0 0 512 512" width="512" xmlns="http://www.w3.org/2000/svg"><g><path d="m315 182h-300c-8.284 0-15 6.716-15 15v300c0 8.284 6.716 15 15 15h300c8.284 0 15-6.716 15-15v-300c0-8.284-6.716-15-15-15z" fill="#4ec9ff"/><path d="m330 197v300c0 8.28-6.72 15-15 15h-59v-330h59c8.28 0 15 6.72 15 15z" fill="#0095ff"/><path d="m406 91h-300c-8.284 0-15 6.716-15 15v300c0 8.284 6.716 15 15 15h300c8.284 0 15-6.716 15-15v-300c0-8.284-6.716-15-15-15z" fill="#ffda2d"/><path d="m421 106v300c0 8.28-6.72 15-15 15h-150v-330h150c8.28 0 15 6.72 15 15z" fill="#ffaa17"/><path d="m497 0h-300c-8.284 0-15 6.716-15 15v300c0 8.284 6.716 15 15 15h300c8.284 0 15-6.716 15-15v-300c0-8.284-6.716-15-15-15z" fill="#ff7900"/><path d="m512 15v300c0 8.28-6.72 15-15 15h-241v-330h241c8.28 0 15 6.72 15 15z" fill="#ff4800"/></g></svg>