<svg id="Capa_1" enable-background="new 0 0 512 512" height="512" viewBox="0 0 512 512" width="512" xmlns="http://www.w3.org/2000/svg"><g><path d="m0 317v180c0 8.284 6.716 15 15 15h482c8.284 0 15-6.716 15-15v-180l-256-10z" fill="#edf5ff"/><path d="m196 317v195h301c8.28 0 15-6.72 15-15v-180z" fill="#cee8ff"/><path d="m512 317v180c0 8.28-6.72 15-15 15h-241v-195z" fill="#aedaff"/><path d="m136 369.468h-60c-8.284 0-15 6.716-15 15v60c0 8.284 6.716 15 15 15h60c8.284 0 15-6.716 15-15v-60c0-8.284-6.716-15-15-15zm-15 60h-30v-30h30z" fill="#cee8ff"/><path d="m512 106-256-10-256 10v211h53.55l202.45-10 202.05 10h53.95z" fill="#4ec9ff"/><path d="m512 15c0-8.284-6.716-15-15-15h-482c-8.284 0-15 6.716-15 15v91h512z" fill="#004692"/><path d="m512 106-256-10v210.902l202.05 10.098h53.95z" fill="#0095ff"/><path d="m512 15v91h-256v-106h241c8.28 0 15 6.72 15 15z" fill="#00204d"/><circle cx="458" cy="53" fill="#e63950" r="15"/><circle cx="398" cy="53" fill="#ffda2d" r="15"/><circle cx="338" cy="53" fill="#32fca5" r="15"/><path d="m330.609 317h127.441l-131.29-131.29c-5.86-5.859-15.348-5.871-21.22 0l-53.106 53.115z" fill="#ff7900"/><path d="m337.68 317h-284.13c.48-.67 1.02-1.31 1.61-1.9l129.7-129.71c5.86-5.85 15.35-5.85 21.21 0z" fill="#ffda2d"/><path d="m337.68 317h-81.68v-81.68z" fill="#ffaa17"/><path d="m436 429.468h-180c-8.284 0-15 6.716-15 15s6.716 15 15 15h180c8.284 0 15-6.716 15-15s-6.716-15-15-15z" fill="#0066b2"/><path d="m451 444.47c0 8.28-6.72 15-15 15h-180v-30h180c8.28 0 15 6.71 15 15z" fill="#004692"/><path d="m256 399.468h180c8.284 0 15-6.716 15-15s-6.716-15-15-15h-180c-8.284 0-15 6.716-15 15s6.716 15 15 15z" fill="#0066b2"/><path d="m451 384.47c0 8.28-6.72 15-15 15h-180v-30h180c8.28 0 15 6.71 15 15z" fill="#004692"/></g></svg>