<?xml version="1.0" ?><svg viewBox="0 0 64 64" xmlns="http://www.w3.org/2000/svg"><g data-name="9-notification" id="_9-notification"><circle cx="32" cy="57" r="6" style="fill:#e7cea0"/><circle cx="32" cy="5" r="4" style="fill:#e2c47d"/><path d="M62,55V51S52,45,52,31C52,8,37,5,32,5S12,8,12,31C12,45,2,51,2,51v4a2,2,0,0,0,2,2H60A2,2,0,0,0,62,55Z" style="fill:#f3e381"/><path d="M2,51H62a0,0,0,0,1,0,0v4a2,2,0,0,1-2,2H4a2,2,0,0,1-2-2V51A0,0,0,0,1,2,51Z" style="fill:#e2c47d"/><path d="M47,23.10107a1.00024,1.00024,0,0,1-.96875-.75341c-1.16943-4.59473-3.38281-7.9878-6.57959-10.084a1.00014,1.00014,0,1,1,1.09668-1.67285c3.62793,2.37939,6.12451,6.16895,7.42139,11.26367A.9997.9997,0,0,1,47,23.10107Z" style="fill:#e2c47d"/><rect height="2" style="fill:#e2c47d" width="2" x="47" y="25"/></g></svg>