<svg id="Capa_1" enable-background="new 0 0 512 512" height="512" viewBox="0 0 512 512" width="512" xmlns="http://www.w3.org/2000/svg"><g><path d="m271 386v42.88c-9.488-3.803-20.322-3.88-30 0v-42.88z" fill="#004692"/><path d="m271 386v42.88c-4.77-1.91-9.87-2.88-15-2.88v-40z" fill="#00204d"/><path d="m481 56v320c0 8.28-6.72 15-15 15h-420c-8.28 0-15-6.72-15-15v-320c0-.34 450-.34 450 0z" fill="#edf5ff"/><path d="m481 56v320c0 8.28-6.72 15-15 15h-210v-335.26c112.5 0 225 .09 225 .26z" fill="#cee8ff"/><circle cx="256" cy="466.5" fill="#9bfcff" r="45.5"/><path d="m301.5 466.5c0 25.09-20.41 45.5-45.5 45.5v-91c25.09 0 45.5 20.41 45.5 45.5z" fill="#4ec9ff"/><circle cx="256" cy="466.5" fill="#4ec9ff" r="15.5"/><path d="m271.5 466.5c0 8.55-6.95 15.5-15.5 15.5v-31c8.55 0 15.5 6.95 15.5 15.5z" fill="#0095ff"/><path d="m404.463 292.962 12.009-12.009c5.858-5.858 5.858-15.355 0-21.213-5.857-5.858-15.355-5.858-21.213 0l-12.009 12.009-12.009-12.009c-5.857-5.858-15.355-5.858-21.213 0s-5.858 15.355 0 21.213l12.009 12.009-12.009 12.009c-5.858 5.858-5.858 15.355 0 21.213 5.857 5.858 15.355 5.859 21.213 0l12.009-12.009 12.009 12.009c5.857 5.858 15.355 5.859 21.213 0 5.858-5.858 5.858-15.355 0-21.213z" fill="#cd0000"/><path d="m150.463 157.962 12.009-12.009c5.858-5.858 5.858-15.355 0-21.213-5.857-5.858-15.355-5.858-21.213 0l-12.009 12.009-12.009-12.009c-5.857-5.858-15.355-5.858-21.213 0s-5.858 15.355 0 21.213l12.009 12.009-12.009 12.008c-5.858 5.858-5.858 15.355 0 21.213 5.857 5.858 15.355 5.859 21.213 0l12.009-12.009 12.009 12.009c5.857 5.858 15.355 5.859 21.213 0 5.858-5.858 5.858-15.355 0-21.213z" fill="#e63950"/><path d="m416.606 155.034-30-30c-5.857-5.858-15.355-5.858-21.213 0s-5.858 15.355 0 21.213l4.394 4.394h-114.787c-8.284 0-15 6.716-15 15v106h-134c-8.284 0-15 6.716-15 15s6.716 15 15 15h149c8.284 0 15-6.716 15-15v-106h99.787l-4.394 4.394c-5.858 5.858-5.858 15.355 0 21.213 5.857 5.858 15.355 5.859 21.213 0l30-30c5.859-5.859 5.859-15.356 0-21.214z" fill="#00e97b"/><path d="m416.61 176.25-30 30c-5.86 5.86-15.36 5.85-21.22 0-5.85-5.86-5.85-15.36 0-21.22l4.4-4.39h-99.79v106c0 7.94-6.18 14.45-14 14.96v-150.96h113.79l-4.4-4.39c-5.85-5.86-5.85-15.36 0-21.22 5.86-5.85 15.36-5.85 21.22 0l30 30c5.85 5.86 5.85 15.36 0 21.22z" fill="#00ca7d"/><path d="m497 0h-482c-8.284 0-15 6.716-15 15v30c0 8.284 6.716 15 15 15h482c8.284 0 15-6.716 15-15v-30c0-8.284-6.716-15-15-15z" fill="#004692"/><path d="m512 15v30c0 8.28-6.72 15-15 15h-241v-60h241c8.28 0 15 6.72 15 15z" fill="#00204d"/></g></svg>