<svg id="Capa_1" enable-background="new 0 0 511.888 511.888" height="512" viewBox="0 0 511.888 511.888" width="512" xmlns="http://www.w3.org/2000/svg"><g><path d="m502.874 69.182-19.584-39.31-23.846-5-24.341 5-19.149 39.45c-.99 2.04-1.51 4.28-1.51 6.55v194l6 15.462 78 .077 6-15.538v-194c0-2.321-.54-4.611-1.57-6.691z" fill="#ffda2d"/><path d="m502.874 69.182-19.584-39.31-23.846-5v260.5l39 .04 6-15.54v-194c0-2.32-.54-4.61-1.57-6.69z" fill="#ffaa17"/><path d="m52.944 511.872c-25.129 0-45.5-20.371-45.5-45.5v-450.5c0-8.284 6.716-15 15-15h331c8.284 0 15 6.716 15 15 0 23.923.371 430.599.371 430.599l-298.159 63.719c-5.628 1.203-11.373 1.77-17.128 1.69z" fill="#4ec9ff"/><path d="m368.814 446.472-180.68 38.61v-484.21h165.31c8.28 0 15 6.72 15 15 0 866.63.02 33.55.37 430.6z" fill="#0095ff"/><path d="m307.444 211.872c8.284 0 15-6.716 15-15v-92c0-8.284-6.716-15-15-15h-179c-8.284 0-15 6.716-15 15s6.716 15 15 15h44v76c0 8.284 6.716 15 15 15s15-6.716 15-15v-76h90v62h-45c-8.284 0-15 6.716-15 15v59c0 8.284 6.716 15 15 15h45v60h-14c-8.284 0-15 6.716-15 15s6.716 15 15 15h29c8.284 0 15-6.716 15-15v-90c0-8.284-6.716-15-15-15h-45v-29z" fill="#edf5ff"/><path d="m262.444 211.872v29h45c8.28 0 15 6.72 15 15v90c0 8.28-6.72 15-15 15h-29c-8.28 0-15-6.72-15-15s6.72-15 15-15h14v-60h-45c-8.28 0-15-6.72-15-15v-59c0-8.28 6.72-15 15-15h45v-62h-90v76c0 8.05-6.35 14.62-14.31 14.98v-120.98h119.31c8.28 0 15 6.72 15 15v92c0 8.28-6.72 15-15 15z" fill="#cee8ff"/><path d="m498.444 285.41 6 14.462v61c0 8.28-6.72 15-15 15h-60c-8.28 0-15-6.72-15-15v-61l6-14.538z" fill="#e63950"/><path d="m504.444 299.872v61c0 8.28-6.72 15-15 15h-30v-90.5l39 .04z" fill="#cd0000"/><path d="m414.444 269.872h90v30h-90z" fill="#ffaa17"/><path d="m459.444 269.872h45v30h-45z" fill="#ff7900"/><path d="m382.944 420.872h-300.436c-4.891 0-6.846 6.26-2.859 9.094 11.484 8.164 18.795 21.154 18.795 36.406 0 25.129-20.371 45.5-45.5 45.5h330c25.129 0 45.5-20.371 45.5-45.5 0-25.129-20.371-45.5-45.5-45.5z" fill="#9bfcff"/><path d="m428.444 466.372c0 25.131-20.379 45.5-45.5 45.5h-194.81v-91h194.81c25.131 0 45.5 20.379 45.5 45.5z" fill="#4ec9ff"/><path d="m227.245 337.052-146-239c-7.87-12.882-27.801-7.288-27.801 7.82v239c0 8.284 6.716 15 15 15h146c11.646 0 18.93-12.785 12.801-22.82zm-143.801-7.18v-170.671l104.259 170.671z" fill="#edf5ff"/><path d="m227.244 337.052-39.11-64.02v86.84h26.31c11.65 0 18.93-12.79 12.8-22.82z" fill="#cee8ff"/><path d="m483.294 29.87h-48.19l10.369-21.361c5.475-11.28 21.516-11.363 27.108-.14z" fill="#edf5ff"/><path d="m483.294 29.87h-23.85v-29.86c5.23.12 10.42 2.91 13.14 8.36z" fill="#cee8ff"/></g></svg>