<svg id="Capa_1" enable-background="new 0 0 512 512" height="512" viewBox="0 0 512 512" width="512" xmlns="http://www.w3.org/2000/svg"><g><path d="m15 30c-8.284 0-15 6.716-15 15v422c0 8.284 6.716 15 15 15h241l10-226-10-226z" fill="#edf5ff"/><path d="m497 30h-241v452h241c8.284 0 15-6.716 15-15v-422c0-8.284-6.716-15-15-15z" fill="#cee8ff"/><g><path d="m124.106 159.106 42.5-42.5c5.858-5.857 5.858-15.355 0-21.213-5.857-5.857-15.355-5.857-21.213 0l-31.893 31.894-5.894-5.894c-5.857-5.857-15.355-5.857-21.213 0s-5.858 15.355 0 21.213l16.5 16.5c5.859 5.859 15.356 5.858 21.213 0z" fill="#00e97b"/><g fill="#004692"><path d="m113 226c0 8.284 6.716 15 15 15h60c8.284 0 15-6.716 15-15s-6.716-15-15-15h-60c-8.284 0-15 6.716-15 15z"/><path d="m188 271h-60c-8.284 0-15 6.716-15 15s6.716 15 15 15h60c8.284 0 15-6.716 15-15s-6.716-15-15-15z"/><path d="m188 331h-60c-8.284 0-15 6.716-15 15s6.716 15 15 15h60c8.284 0 15-6.716 15-15s-6.716-15-15-15z"/><path d="m188 391h-60c-8.284 0-15 6.716-15 15s6.716 15 15 15h60c8.284 0 15-6.716 15-15s-6.716-15-15-15z"/><circle cx="68" cy="226" r="15"/><circle cx="68" cy="286" r="15"/><circle cx="68" cy="346" r="15"/><circle cx="68" cy="406" r="15"/></g></g><g><path d="m384 148.963 11.144 11.144c5.858 5.858 15.355 5.857 21.213 0s5.858-15.355 0-21.213l-11.144-11.144 11.144-11.144c5.858-5.857 5.858-15.355 0-21.213-5.857-5.857-15.355-5.857-21.213 0l-11.144 11.144-11.144-11.144c-5.857-5.857-15.355-5.857-21.213 0s-5.858 15.355 0 21.213l11.144 11.144-11.144 11.144c-5.858 5.857-5.858 15.355 0 21.213s15.355 5.857 21.213 0z" fill="#ff4800"/><g fill="#004692"><path d="m369 226c0 8.284 6.716 15 15 15h60c8.284 0 15-6.716 15-15s-6.716-15-15-15h-60c-8.284 0-15 6.716-15 15z"/><path d="m444 271h-60c-8.284 0-15 6.716-15 15s6.716 15 15 15h60c8.284 0 15-6.716 15-15s-6.716-15-15-15z"/><path d="m444 331h-60c-8.284 0-15 6.716-15 15s6.716 15 15 15h60c8.284 0 15-6.716 15-15s-6.716-15-15-15z"/><path d="m444 391h-60c-8.284 0-15 6.716-15 15s6.716 15 15 15h60c8.284 0 15-6.716 15-15s-6.716-15-15-15z"/><circle cx="324" cy="226" r="15"/><circle cx="324" cy="286" r="15"/><circle cx="324" cy="346" r="15"/><circle cx="324" cy="406" r="15"/></g></g></g></svg>