<svg id="Capa_1" enable-background="new 0 0 512 512" height="512" viewBox="0 0 512 512" width="512" xmlns="http://www.w3.org/2000/svg"><g><path d="m497 53.521h-482c-8.284 0-15 6.716-15 15v209.5c0 41.355 33.645 75 75 75h362c41.355 0 75-33.645 75-75v-209.5c0-8.284-6.716-15-15-15z" fill="#edf5ff"/><path d="m512 68.521v209.5c0 41.35-33.65 75-75 75h-181v-299.5h241c8.28 0 15 6.72 15 15z" fill="#cee8ff"/><path d="m512 278.021c0-44.281-45.665-71.89-83.948-55.049-3.322 1.461-7.052-.923-7.052-4.552v-199.371c0-1.842 1.014-3.54 2.634-4.415 39.073-21.109 88.366 6.873 88.366 52.887z" fill="#aedaff"/><path d="m0 278.021v-210.5c0-45.998 49.276-74.006 88.366-52.887 1.62.875 2.634 2.573 2.634 4.415v199.371c0 3.629-3.73 6.013-7.052 4.552-38.269-16.831-83.948 10.753-83.948 55.049" fill="#cee8ff"/><path d="m361 278.771c-.002-161.003.206-150.926-.451-153.593-2.793-11.355-14.534-11.367-14.634-11.407h-179.915c-8.317 0-15 6.797-15 15 0 11.884.002 135.338.002 150.036.014 8.403 6.909 14.965 15.006 14.965 9.655 0 169.681-.002 180.016-.002 8.066-.013 14.976-6.549 14.976-14.999z" fill="#0066b2"/><path d="m361 278.771c0 8.45-6.91 14.99-14.98 15h-90.02v-180h89.91c.1.04 11.85.05 14.64 11.41.66 2.66.45-7.41.45 153.59z" fill="#004692"/><path d="m181 160.797 51.569 42.974-51.569 42.975z" fill="#ffda2d"/><path d="m207.431 143.771h97.138l-48.569 40.475z" fill="#ffda2d"/><path d="m304.57 143.771-48.57 40.47v-40.47z" fill="#ffaa17"/><path d="m256 223.297 48.569 40.474h-97.138z" fill="#ffda2d"/><path d="m304.57 263.771h-48.57v-40.47z" fill="#ffaa17"/><path d="m279.431 203.771 51.569-42.974v85.949z" fill="#ffaa17"/><path d="m512 398.521v91c0 8.28-6.72 15-15 15h-482c-8.28 0-15-6.72-15-15v-91c0-8.28 6.72-15 15-15h482c8.28 0 15 6.72 15 15z" fill="#ffda2d"/><path d="m512 398.521v91c0 8.28-6.72 15-15 15h-241v-121h241c8.28 0 15 6.72 15 15z" fill="#ffaa17"/><path d="m451 468.521v36h-30v-36c0-8.28 6.72-15 15-15s15 6.72 15 15z" fill="#ff7900"/><path d="m391 443.521v61h-30v-61c0-8.28 6.72-15 15-15s15 6.72 15 15z" fill="#ff7900"/><path d="m331 468.521v36h-30v-36c0-8.28 6.72-15 15-15s15 6.72 15 15z" fill="#ff7900"/><path d="m271 443.521v61h-30v-61c0-8.28 6.72-15 15-15s15 6.72 15 15z" fill="#ffaa17"/><path d="m271 443.521v61h-15v-76c8.28 0 15 6.72 15 15z" fill="#ff7900"/><g fill="#ffaa17"><path d="m211 468.521v36h-30v-36c0-8.28 6.72-15 15-15s15 6.72 15 15z"/><path d="m151 443.521v61h-30v-61c0-8.28 6.72-15 15-15s15 6.72 15 15z"/><path d="m91 468.521v36h-30v-36c0-8.28 6.72-15 15-15s15 6.72 15 15z"/></g></g></svg>