<svg id="Capa_1" enable-background="new 0 0 512 512" height="512" viewBox="0 0 512 512" width="512" xmlns="http://www.w3.org/2000/svg"><g><path d="m283.559 335.123c-7.899 0-15.233 2.438-21.286 6.603-2.659 1.829-6.275-.07-6.275-3.297v-82.929h-73.941c-3.225 0-5.129 3.613-3.301 6.27 4.662 6.772 7.162 15.149 6.502 24.126-1.357 18.464-16.327 33.365-34.799 34.646-21.968 1.523-40.263-15.845-40.263-37.485 0-7.898 2.439-15.231 6.604-21.283 1.83-2.659-.07-6.274-3.298-6.274h-56.976c-58.758 60.266-19.539 163.03 65.517 167.397-8.78 46.365 26.97 89.104 73.821 89.104 24.565 0 46.417-11.851 60.134-30.133v-74.894c0-3.225 3.614-5.129 6.271-3.3 6.773 4.661 15.151 7.161 24.13 6.501 18.466-1.357 33.37-16.325 34.651-34.794 1.523-21.965-15.848-40.258-37.491-40.258z" fill="#ffaa17"/><path d="m116.8 261.773c-4.165 6.052-6.604 13.385-6.604 21.283 0 21.639 18.296 39.008 40.263 37.485 18.472-1.281 33.442-16.183 34.799-34.646.66-8.977-1.84-17.354-6.502-24.126-1.829-2.656.076-6.27 3.301-6.27h73.941v-82.929c0-3.225-3.614-5.129-6.271-3.3-6.773 4.661-15.151 7.161-24.13 6.501-18.466-1.357-33.37-16.325-34.651-34.794-1.523-21.965 15.848-40.258 37.49-40.258 7.899 0 15.233 2.438 21.286 6.603 2.659 1.829 6.275-.07 6.275-3.297v-73.892c-13.716-18.282-35.567-30.133-60.133-30.133-46.494 0-82.084 42.084-74 88.11-84.802 4.506-124.133 107.084-65.338 167.389h56.976c3.228 0 5.128 3.615 3.298 6.274z" fill="#32fca5"/><path d="m455.687 255.499h-57.193c-3.225 0-5.129-3.613-3.301-6.27 4.662-6.772 7.162-15.149 6.502-24.126-1.357-18.464-16.327-33.366-34.799-34.646-21.968-1.523-40.263 15.845-40.263 37.485 0 7.898 2.439 15.231 6.604 21.283 1.83 2.658-.07 6.274-3.298 6.274h-73.941v82.929c0 3.227 3.616 5.127 6.275 3.297 6.053-4.164 13.387-6.603 21.286-6.603 21.643 0 39.014 18.293 37.49 40.258-1.281 18.469-16.185 33.437-34.651 34.794-8.979.66-17.357-1.84-24.13-6.501-2.657-1.828-6.271.076-6.271 3.3v74.894c13.718 18.282 35.569 30.133 60.135 30.133 46.494 0 82.084-42.084 74-88.11 85.48-4.542 123.747-107.947 65.433-168.262.041-.043.08-.086.122-.129z" fill="#cd0000"/><path d="m255.998 406.973c0-3.225 3.614-5.129 6.271-3.3 6.773 4.661 15.151 7.161 24.13 6.501 18.466-1.357 33.37-16.325 34.651-34.794 1.523-21.965-15.848-40.258-37.49-40.258-7.899 0-15.233 2.438-21.286 6.603-2.659 1.829-6.275-.07-6.275-3.297v68.545z" fill="#ff7900"/><path d="m389.953 89.104c8.78-46.366-26.97-89.104-73.821-89.104-24.565 0-46.417 11.851-60.134 30.133v73.892c0 3.227-3.616 5.127-6.275 3.297-6.053-4.164-13.387-6.603-21.286-6.603-21.643 0-39.014 18.293-37.49 40.258 1.281 18.469 16.185 33.437 34.651 34.794 8.979.66 17.357-1.84 24.13-6.501 2.657-1.828 6.271.076 6.271 3.3v82.929h73.941c3.228 0 5.127-3.615 3.298-6.274-4.165-6.052-6.604-13.385-6.604-21.283 0-21.639 18.295-39.008 40.263-37.485 18.472 1.281 33.442 16.183 34.799 34.646.66 8.977-1.84 17.354-6.502 24.126-1.829 2.656.076 6.27 3.301 6.27h57.193c58.729-59.496 18.649-162.063-65.735-166.395z" fill="#0095ff"/><path d="m249.723 107.322c-6.053-4.164-13.387-6.603-21.286-6.603-21.643 0-39.014 18.293-37.49 40.258 1.281 18.469 16.185 33.437 34.651 34.794 8.979.66 17.357-1.84 24.13-6.501 2.657-1.828 6.271.076 6.271 3.3v-68.545c-.001 3.227-3.617 5.126-6.276 3.297z" fill="#4ec9ff"/></g></svg>