<svg id="Capa_1" enable-background="new 0 0 512 512" height="512" viewBox="0 0 512 512" width="512" xmlns="http://www.w3.org/2000/svg"><g><path d="m88.448 45c-6.214-17.739-23.114-30.5-42.948-30.5-25.089 0-45.5 20.411-45.5 45.5s20.411 45.5 45.5 45.5c19.834 0 36.734-12.761 42.948-30.5h167.552v-30z" fill="#ffda2d"/><path d="m466.5 14.5c-19.834 0-36.734 12.761-42.948 30.5h-167.552v30h167.552c6.214 17.739 23.114 30.5 42.948 30.5 25.089 0 45.5-20.411 45.5-45.5s-20.411-45.5-45.5-45.5z" fill="#ffaa17"/><path d="m363.625 376-107.625-10-106.27 10-57.146 114.292c-4.978 9.954 2.268 21.708 13.416 21.708h300c11.06 0 18.346-11.611 13.479-21.58z" fill="#e63950"/><path d="m406 512h-150v-146l107.63 10 55.85 114.42c4.87 9.97-2.42 21.58-13.48 21.58z" fill="#cd0000"/><path d="m256 45c121.22 0 220.338 95.623 225.31 216h-30.04c-4.97-103.4-90.65-186-195.27-186z" fill="#0095ff"/><path d="m256 75c-104.62 0-190.3 82.6-195.27 186h-30.03c4.941-120.162 103.846-216 225.3-216z" fill="#4ec9ff"/><path d="m77 256h-62c-8.284 0-15 6.716-15 15v62c0 8.284 6.716 15 15 15h62c8.284 0 15-6.716 15-15v-62c0-8.284-6.716-15-15-15z" fill="#9bfcff"/><path d="m497 256h-62c-8.284 0-15 6.716-15 15v62c0 8.284 6.716 15 15 15h62c8.284 0 15-6.716 15-15v-62c0-8.284-6.716-15-15-15z" fill="#4ec9ff"/><path d="m302 0h-92c-8.284 0-15 6.716-15 15v92c0 8.284 6.716 15 15 15h92c8.284 0 15-6.716 15-15v-92c0-8.284-6.716-15-15-15z" fill="#9bfcff"/><path d="m317 15v92c0 8.28-6.72 15-15 15h-46v-122h46c8.28 0 15 6.72 15 15z" fill="#4ec9ff"/><path d="m318 282.534v-102.683c7.336-.98 13-7.247 13-14.851 0-8.284-6.716-15-15-15h-120c-8.284 0-15 6.716-15 15s6.716 15 15 15v103.459l-46.27 92.541h213.896z" fill="#edf5ff"/><path d="m363.63 376h-107.63v-226h60c8.28 0 15 6.72 15 15 0 7.6-5.66 13.87-13 14.85v102.68z" fill="#cee8ff"/></g></svg>