<svg id="Capa_1" enable-background="new 0 0 512 512" height="512" viewBox="0 0 512 512" width="512" xmlns="http://www.w3.org/2000/svg"><g><path d="m301 86v139c0 8.28-6.72 15-15 15h-240c-8.28 0-15-6.72-15-15v-139z" fill="#4ec9ff"/><path d="m301 86v139c0 8.28-6.72 15-15 15h-120v-154z" fill="#0095ff"/><path d="m316 15v61c0 8.28-6.72 15-15 15h-270c-8.28 0-15-6.72-15-15v-61c0-8.28 6.72-15 15-15h90l45.933 10 44.067-10h90c8.28 0 15 6.72 15 15z" fill="#9bfcff"/><path d="m316 15v61c0 8.28-6.72 15-15 15h-135v-81.2l.93.2 44.07-10h90c8.28 0 15 6.72 15 15z" fill="#4ec9ff"/><path d="m211 0v136c0 11.111-11.595 18.245-21.45 13.54l-23.06-10.99-24.25 11.09c-9.928 4.54-21.24-2.735-21.24-13.64v-136z" fill="#edf5ff"/><path d="m211 0v136c0 11.11-11.59 18.25-21.45 13.54l-23.06-10.99-.49.22v-138.77z" fill="#cee8ff"/><path d="m482 301h-275.732l-26.902-52.809c-5.493-10.783-20.931-10.981-26.628-.198l-28.005 53.007h-94.733c-8.284 0-15 6.716-15 15v181c0 8.284 6.716 15 15 15h452c8.284 0 15-6.716 15-15v-181c0-8.284-6.716-15-15-15z" fill="#ffda2d"/><path d="m497 316v181c0 8.28-6.72 15-15 15h-316v-272c5.3.01 10.59 2.76 13.37 8.19l26.9 52.81h275.73c8.28 0 15 6.72 15 15z" fill="#ffaa17"/><path d="m91 391h210c8.284 0 15-6.716 15-15s-6.716-15-15-15h-210c-8.284 0-15 6.716-15 15s6.716 15 15 15z" fill="#ffaa17"/><path d="m316 376c0 8.28-6.72 15-15 15h-135v-30h135c8.28 0 15 6.72 15 15z" fill="#ff7900"/><path d="m391 421h-300c-8.284 0-15 6.716-15 15s6.716 15 15 15h300c8.284 0 15-6.716 15-15s-6.716-15-15-15z" fill="#ffaa17"/><path d="m406 436c0 8.28-6.72 15-15 15h-225v-30h225c8.28 0 15 6.72 15 15z" fill="#ff7900"/><path d="m367.36 421 11.31 21.89c2.58 4.98 7.73 8.11 13.33 8.11h.2c5.68-.08 10.83-3.36 13.3-8.47l10.406-21.53-24.906-10z" fill="#004692"/><path d="m391 411v39.96c.33.03.66.04 1 .04.1-.031 9.242.339 13.5-8.47l10.406-21.53z" fill="#00204d"/><path d="m434.5 382.53c.99-2.04 1.5-4.27 1.5-6.53v-165l-6.312-15h-77.545l-6.143 15v165c0 2.4.57 4.76 1.67 6.89l19.69 38.11h48.546z" fill="#32fca5"/><path d="m434.5 382.53c.99-2.04 1.5-4.27 1.5-6.53v-165l-6.31-15h-38.69v225h24.906z" fill="#00e97b"/><path d="m429.461 195.462 6.539-14.462v-44c0-8.28-6.72-15-15-15h-60c-8.28 0-15 6.72-15 15v44l6.615 13.846-.472 1.154h77.545z" fill="#ff637b"/><path d="m436 181-6.54 14.46.23.54h-38.69v-74h30c8.28 0 15 6.72 15 15z" fill="#e63950"/><path d="m346 181h90v30h-90z" fill="#ffaa17"/><path d="m391 181h45v30h-45z" fill="#ff7900"/></g></svg>