<svg id="Capa_1" enable-background="new 0 0 512 512" height="512" viewBox="0 0 512 512" width="512" xmlns="http://www.w3.org/2000/svg"><g><path d="m24.391 136v361c0 8.284 6.716 15 15 15h330c8.284 0 15-6.716 15-15v-361l-15.692-10h-326.462z" fill="#edf5ff"/><path d="m384.391 136v361c0 8.28-6.72 15-15 15h-165v-386h164.31z" fill="#cee8ff"/><path d="m384.391 45c0-8.284-6.716-15-15-15h-330c-8.284 0-15 6.716-15 15v91h360z" fill="#ff7900"/><path d="m384.391 45v91h-180v-106h165c8.28 0 15 6.72 15 15z" fill="#ff4800"/><g><g><g><path d="m98.891 0c-8.284 0-15 6.716-15 15v40c0 8.284 6.716 15 15 15s15-6.716 15-15v-40c0-8.284-6.716-15-15-15z" fill="#ffaa17"/></g><g><path d="m168.891 0c-8.284 0-15 6.716-15 15v40c0 8.284 6.716 15 15 15s15-6.716 15-15v-40c0-8.284-6.716-15-15-15z" fill="#ffaa17"/></g><g><path d="m238.891 0c-8.284 0-15 6.716-15 15v40c0 8.284 6.716 15 15 15s15-6.716 15-15v-40c0-8.284-6.716-15-15-15z" fill="#ff7900"/></g><g><path d="m308.891 0c-8.284 0-15 6.716-15 15v40c0 8.284 6.716 15 15 15s15-6.716 15-15v-40c0-8.284-6.716-15-15-15z" fill="#ff7900"/></g></g></g><path d="m228.391 391h-83.5c-16.818 0-30.5-13.682-30.5-30.5s13.682-30.5 30.5-30.5h31.5c33.084 0 60-26.916 60-60s-26.916-60-60-60h-46c-8.284 0-15 6.716-15 15s6.716 15 15 15h46c16.542 0 30 13.458 30 30s-13.458 30-30 30h-31.5c-33.36 0-60.5 27.14-60.5 60.5s27.14 60.5 60.5 60.5h83.5c8.284 0 15-6.716 15-15s-6.716-15-15-15z" fill="#0066b2"/><path d="m204.391 323.05v-42.3c1.3-3.34 2-6.96 2-10.75s-.7-7.41-2-10.75v-42.3c19.02 10.08 32 30.08 32 53.05s-12.98 42.97-32 53.05z" fill="#004692"/><path d="m243.391 406c0 8.28-6.72 15-15 15h-24v-30h24c8.28 0 15 6.72 15 15z" fill="#004692"/><path d="m486.151 190.417-42.426-42.427c-1.944-1.944-5.121-1.964-7.078-.007l-42.426 42.427-5.963 13.034-15.258 8.186-127.272 127.272c-.552.552-.962 1.216-1.202 1.952-4.718 14.147-16.374 49.1-21.22 63.632-1.305 3.915 2.41 7.614 6.329 6.343 68.709-22.908 64.304-21.142 65.591-22.429l127.272-127.272 6.156-13.227 15.064-7.993 42.426-42.427c1.952-1.952 1.952-5.12.007-7.064z" fill="#0095ff"/><path d="m393.354 190.768h30.01v70h-30.01z" fill="#ffda2d" transform="matrix(.707 -.707 .707 .707 -40.037 354.879)"/></g></svg>