<svg id="Capa_1" enable-background="new 0 0 512 512" height="512" viewBox="0 0 512 512" width="512" xmlns="http://www.w3.org/2000/svg"><g><path d="m225.752 352.347-18.828 56.525c-3.51 10.509-16.918 13.789-24.837 5.86l-84.861-84.882c-7.879-7.879-4.69-21.318 5.869-24.838l56.474-18.828 43.245 23.239z" fill="#0066b2"/><path d="m225.752 352.347-18.828 56.525c-3.51 10.509-16.918 13.789-24.837 5.86l-42.406-42.406 62.983-62.984.15.08z" fill="#004692"/><path d="m508.082 15.928c-1.15-6.029-5.919-10.759-11.949-11.919-55.477-10.724-112.103.353-158.842 29.798l53.021 82.73 87.74 58.091c29.462-46.673 40.618-103.254 30.03-158.7z" fill="#cee8ff"/><path d="m478.055 174.623-84.641-56.035 110.478-110.48c2.12 2.08 3.61 4.79 4.19 7.819 10.589 55.446-.57 112.03-30.027 158.696z" fill="#aedaff"/><path d="m184.716 98.64 72.522 14.549-99.1 99.141-7.859.8-42.446-42.446-21.208 21.218c-5.859 5.86-15.358 5.86-21.208.01-5.859-5.859-5.869-15.358-.01-21.218 7.849-7.849 43.945-43.966 51.525-51.545 17.789-17.789 43.127-25.459 67.784-20.509z" fill="#e63950"/><path d="m392.864 394.863c-2.51 2.51-49.325 49.345-51.685 51.705-5.859 5.859-15.348 5.859-21.208 0-5.859-5.849-5.859-15.349-.01-21.208l21.228-21.228-42.431-42.45.215-7.284 100.2-100.252c1.95 8.159 4.54 26.078 14.268 73.343 4.77 24.518-2.919 49.706-20.577 67.374z" fill="#cd0000"/><path d="m139.889 372.075c-31.154-31.168-80.651-30.258-112.093 1.196-24.758 24.77-28.483 91.623-27.704 124.01.192 8.001 6.632 14.441 14.633 14.634 33.35.751 99.362-3.101 123.968-27.718 31.346-31.359 32.447-80.859 1.196-112.122z" fill="#ffda2d"/><path d="m138.691 484.195c-24.607 24.618-90.61 28.467-123.967 27.717-4-.09-7.609-1.75-10.239-4.389l135.426-135.428c31.226 31.267 30.117 80.753-1.22 112.1z" fill="#ffaa17"/><path d="m30.046 481.928c.768-40.16 8.515-76.995 18.966-87.451 19.931-19.939 50.421-20.445 69.661-1.196 19.202 19.21 18.677 49.829-1.195 69.709-8.958 8.962-41.515 18.029-87.432 18.938z" fill="#ffaa17"/><path d="m117.473 462.987c-8.949 8.969-41.486 18.018-87.391 18.938l88.611-88.612c19.178 19.208 18.648 49.805-1.22 69.674z" fill="#ff7900"/><path d="m159.569 286.183 17.468-53.365 101.929 101.931-53.214 17.598z" fill="#edf5ff"/><path d="m278.966 334.749-53.214 17.598-33.047-33.047 35.406-35.407z" fill="#cee8ff"/><g><g><path d="m22.983 213.141-18.384 18.392c-5.856 5.859-5.854 15.355.004 21.211 5.856 5.854 15.353 5.857 21.211-.004l18.384-18.392c5.856-5.859 5.854-15.355-.004-21.211-5.858-5.857-15.355-5.856-21.211.004z" fill="#e63950"/><g><path d="m298.751 467.801c-5.859-5.857-15.355-5.856-21.211.004l-18.384 18.392c-5.856 5.859-5.854 15.355.004 21.211 5.856 5.854 15.353 5.857 21.211-.004l18.384-18.392c5.856-5.859 5.854-15.355-.004-21.211z" fill="#cd0000"/></g></g></g><path d="m298.874 64.473-95.578 95.618 52.723 95.894 95.773 52.637 95.767-95.813c11.684-11.689 21.866-24.515 30.493-38.182-40.459-40.476-102.438-102.482-140.761-140.82-13.753 8.665-26.659 18.904-38.417 30.666z" fill="#edf5ff"/><path d="m478.055 174.623c-8.629 13.669-18.808 26.498-30.497 38.187l-95.77 95.811-95.77-52.635 151.715-151.716c25.057 25.077 50.314 50.345 70.322 70.353z" fill="#cee8ff"/><path d="m150.28 213.13 148.514 148.516 52.997-53.023-148.495-148.532z" fill="#cee8ff"/><path d="m351.788 308.621-52.994 53.025-74.212-74.213 53.014-53.025z" fill="#aedaff"/><path d="m439.115 72.722c-17.584-17.592-46.054-17.596-63.642 0-17.542 17.549-17.541 46.103 0 63.65 17.583 17.592 46.054 17.597 63.641 0 17.542-17.547 17.543-46.101.001-63.65z" fill="#4ec9ff"/><path d="m439.119 136.377c-17.558 17.558-45.975 17.588-63.563.07l63.643-63.644c17.458 17.558 17.428 46.055-.08 63.574z" fill="#0095ff"/><path d="m417.9 115.166c-5.861 5.863-15.348 5.866-21.212 0-5.852-5.855-5.852-15.381 0-21.236 5.86-5.863 15.348-5.866 21.211 0 5.853 5.854 5.853 15.381.001 21.236z" fill="#9bfcff"/><path d="m417.901 115.168c-5.829 5.83-15.268 5.86-21.138.07l21.218-21.218c5.77 5.86 5.74 15.319-.08 21.148z" fill="#4ec9ff"/></g></svg>