<svg id="Capa_1" enable-background="new 0 0 512 512" height="512" viewBox="0 0 512 512" width="512" xmlns="http://www.w3.org/2000/svg"><g><path d="m512 104.87v392.13c0 8.28-6.72 15-15 15h-420c-8.28 0-15-6.72-15-15v-55h252.308l125.692-96.077v-256.053h57c8.28 0 15 6.72 15 15z" fill="#ff637b"/><path d="m512 104.87v392.13c0 8.28-6.72 15-15 15h-272v-70h89.31l125.69-96.08v-256.05h57c8.28 0 15 6.72 15 15z" fill="#e63950"/><path d="m315 452h-300c-8.284 0-15-6.716-15-15v-360c0-8.284 6.716-15 15-15h285l14.574 10 15.426-10h105c8.28 0 15 6.72 15 15l-.038 269-86.134 51.942z" fill="#ffda2d"/><path d="m450 77-.04 269-86.13 51.94-48.83 54.06h-90v-390h75l14.795 10 15.205-10h105c8.28 0 15 6.72 15 15z" fill="#ffaa17"/><path d="m315 361v91l134.942-106h-119.942c-8.284 0-15 6.716-15 15z" fill="#ff7900"/><path d="m105 241h240c8.284 0 15-6.716 15-15s-6.716-15-15-15h-240c-8.284 0-15 6.716-15 15s6.716 15 15 15z" fill="#ff7900"/><path d="m360 226c0 8.28-6.72 15-15 15h-120v-30h120c8.28 0 15 6.72 15 15z" fill="#ff4800"/><path d="m105 301h130c8.284 0 15-6.716 15-15s-6.716-15-15-15h-130c-8.284 0-15 6.716-15 15s6.716 15 15 15z" fill="#ff7900"/><path d="m250 286c0 8.28-6.72 15-15 15h-10v-30h10c8.28 0 15 6.72 15 15z" fill="#ff4800"/><path d="m255 331h-150c-8.284 0-15 6.716-15 15s6.716 15 15 15h150c8.284 0 15-6.716 15-15s-6.716-15-15-15z" fill="#ff7900"/><path d="m270 346c0 8.28-6.72 15-15 15h-30v-30h30c8.28 0 15 6.72 15 15z" fill="#ff4800"/><path d="m345 271h-50c-8.284 0-15 6.716-15 15s6.716 15 15 15h50c8.284 0 15-6.716 15-15s-6.716-15-15-15z" fill="#ff4800"/><g><path d="m300 0c-33.084 0-60 26.916-60 60v76c0 24.813 20.187 45 45 45s45-20.187 45-45v-73.974h-30v73.974c0 8.271-6.729 15-15 15s-15-6.729-15-15v-76c0-16.542 13.458-30 30-30s30 13.458 30 30v2.026h30v-2.026c0-33.084-26.916-60-60-60z" fill="#0066b2"/></g></g></svg>