<svg id="Capa_1" enable-background="new 0 0 512 512" height="512" viewBox="0 0 512 512" width="512" xmlns="http://www.w3.org/2000/svg"><g><path d="m482 512-30-136v-361c0-8.284-6.716-15-15-15h-422c-8.284 0-15 6.716-15 15v452c0 24.813 20.187 45 45 45z" fill="#edf5ff"/><path d="m482 512h-256.08v-512h211.08c8.28 0 15 6.72 15 15v361z" fill="#cee8ff"/><path d="m196 61h-120c-8.284 0-15 6.716-15 15v90c0 8.284 6.716 15 15 15h120c8.284 0 15-6.716 15-15v-90c0-8.284-6.716-15-15-15z" fill="#cee8ff"/><path d="m376 61h-120c-8.284 0-15 6.716-15 15v90c0 8.284 6.716 15 15 15h120c8.284 0 15-6.716 15-15v-90c0-8.284-6.716-15-15-15z" fill="#aedaff"/><path d="m196 271h-120c-8.284 0-15 6.716-15 15v90c0 8.284 6.716 15 15 15h120c8.284 0 15-6.716 15-15v-90c0-8.284-6.716-15-15-15z" fill="#cee8ff"/><path d="m376 271h-120c-8.284 0-15 6.716-15 15v90c0 8.284 6.716 15 15 15h120c8.284 0 15-6.716 15-15v-90c0-8.284-6.716-15-15-15z" fill="#aedaff"/><path d="m196 211h-120c-8.284 0-15 6.716-15 15s6.716 15 15 15h120c8.284 0 15-6.716 15-15s-6.716-15-15-15z" fill="#cee8ff"/><path d="m196 421h-120c-8.284 0-15 6.716-15 15s6.716 15 15 15h120c8.284 0 15-6.716 15-15s-6.716-15-15-15z" fill="#cee8ff"/><g fill="#aedaff"><path d="m256 241h120c8.284 0 15-6.716 15-15s-6.716-15-15-15h-120c-8.284 0-15 6.716-15 15s6.716 15 15 15z"/><path d="m376 420h-120c-8.284 0-15 6.716-15 15s6.716 15 15 15h120c8.284 0 15-6.716 15-15s-6.716-15-15-15z"/><path d="m482 512c-16.569 0-30-13.431-30-30v-106h45c8.284 0 15 6.716 15 15v91c0 16.569-13.431 30-30 30z"/></g></g></svg>