<svg id="Capa_1" enable-background="new 0 0 512 512" height="512" viewBox="0 0 512 512" width="512" xmlns="http://www.w3.org/2000/svg"><g><path d="m235.862 2.773c108.799 15.144 190.639 85.88 190.639 201.572v108c0 8.284-6.716 15-15 15h-50v-123c0-50.66-22.05-90.08-63.76-114-32.96-18.89-75.55-26.63-113.52-25.56v-44.786c0-11.381 9.477-20.444 20.849-19.983 8.539.347 18.806 1.089 30.792 2.757z" fill="#0066b2"/><path d="m426.501 204.346v108c0 8.28-6.72 15-15 15h-50v-123c0-50.66-22.05-90.08-63.76-114-12.75-7.31-26.94-12.95-41.74-17.05v-67.02c98.6 20.69 170.5 89.64 170.5 198.07z" fill="#004692"/><path d="m366.501 204.346v162.36h-216.29c1.811-87.118 47.57-115.66 61.21-158.5l-72.93 38.41c-6.8 3.59-15.21 1.44-19.48-4.96l-41-61.57c-4.01-6.02-3.14-14.05 2.05-19.08.98-.952-11.82 11.486 104.161-101.214 21.02-.574 72.105 1.056 116.009 26.224 43.35 24.85 66.27 65.77 66.27 118.33z" fill="#004692"/><path d="m366.501 204.346v162.36h-110.5v-298.63c14.64 3.95 29.82 9.68 44.23 17.94 43.35 24.85 66.27 65.77 66.27 118.33z" fill="#00204d"/><path d="m406.501 376.706v60h-290v-60c0-8.28 6.72-15 15-15h260c8.28 0 15 6.72 15 15z" fill="#ffda2d"/><path d="m406.501 376.706v60h-150.5v-75h135.5c8.28 0 15 6.72 15 15z" fill="#ffaa17"/><path d="m421.501 432h-320c-8.284 0-15 6.716-15 15v50c0 8.284 6.716 15 15 15h320c8.284 0 15-6.716 15-15v-50c0-8.284-6.716-15-15-15z" fill="#ffaa17"/><path d="m436.501 447v50c0 8.28-6.72 15-15 15h-165.5v-80h165.5c8.28 0 15 6.72 15 15z" fill="#ff7900"/></g></svg>