<svg id="Capa_1" enable-background="new 0 0 512 512" height="512" viewBox="0 0 512 512" width="512" xmlns="http://www.w3.org/2000/svg"><g><path d="m181 314.5v152c0 8.28-6.72 15-15 15h-151c-8.28 0-15-6.72-15-15v-152c0-41.36 33.64-75 75-75h31c41.36 0 75 33.64 75 75z" fill="#32fca5"/><path d="m512 314.5v152c0 8.28-6.72 15-15 15h-151c-8.28 0-15-6.72-15-15v-152c0-41.36 33.64-75 75-75h31c41.36 0 75 33.64 75 75z" fill="#e63950"/><circle cx="90.5" cy="180" fill="#d69a8b" r="60"/><circle cx="421.5" cy="180" fill="#c28678" r="60"/><path d="m361 254.5v227h-210v-227c0-41.42 33.58-75 75-75h60c41.42 0 75 33.58 75 75z" fill="#ffda2d"/><path d="m361 254.5v227h-105v-302h30c41.42 0 75 33.58 75 75z" fill="#ffaa17"/><path d="m297.97 296.24-30 39.7c-5.99 7.909-17.919 7.949-23.94 0l-30-39.7c-2.79-3.7-3.72-8.47-2.51-12.95l27.94-103.79h33.08l27.94 103.79c1.21 4.48.28 9.25-2.51 12.95z" fill="#ff7900"/><path d="m297.97 296.24-30 39.7c-3 3.96-7.48 5.95-11.97 5.95v-162.39h16.54l27.94 103.79c1.21 4.48.28 9.25-2.51 12.95z" fill="#ff4800"/><circle cx="256" cy="105.5" fill="#ffccbd" r="75"/><path d="m331 105.5c0 41.36-33.64 75-75 75v-150c41.36 0 75 33.64 75 75z" fill="#ffbda9"/><path d="m106 239.5v106c0 8.28-6.72 15-15 15s-15-6.72-15-15v-106z" fill="#00ca7d"/><path d="m436 239.5v106c0 8.28-6.72 15-15 15s-15-6.72-15-15v-106z" fill="#cd0000"/></g></svg>