<svg id="Capa_1" enable-background="new 0 0 512 512" height="512" viewBox="0 0 512 512" width="512" xmlns="http://www.w3.org/2000/svg"><g><path d="m416.227 105.937c-13.145-26.516-40.773-43.615-71.217-42.746-13.435-32.581-42.338-55.77-77.997-61.723-36.42-6.075-72.054 7.213-95.356 34.954-50.186-9.045-97.317 27.955-100.14 79.18-43.197 19.126-71.517 62.049-71.517 110.023 0 55.955 38.554 103.958 91.704 116.9.767 14.921 6.376 29.291 16.217 40.889 29.763 35.08 85.063 31.539 109.952-6.853 48.963 26.315 109.967 12.476 142.83-32.551 50.29 10.993 99.126-25.16 103.079-76.715 29.232-14.046 48.218-43.679 48.218-76.777 0-52.796-46.629-90.887-95.773-84.581z" fill="#edf5ff"/><path d="m512 190.52c0 33.1-18.99 62.73-48.22 76.78-3.95 51.55-52.79 87.7-103.08 76.71-25.74 35.27-68.74 51.4-109.7 44.09v-388.07c40.346.533 77.804 23.875 94.01 63.16 30.44-.87 58.07 16.23 71.22 42.75 49.14-6.31 95.77 31.78 95.77 84.58z" fill="#cee8ff"/><circle cx="106.5" cy="466.48" fill="#edf5ff" r="45.5"/><circle cx="131" cy="225.98" fill="#cee8ff" r="45"/><circle cx="371" cy="225.98" fill="#aedaff" r="45"/><circle cx="251" cy="225.98" fill="#cee8ff" r="45"/><path d="m296 225.98c0 24.81-20.19 45-45 45v-90c24.81 0 45 20.19 45 45z" fill="#aedaff"/></g></svg>