<svg id="Capa_1" enable-background="new 0 0 512 512" height="512" viewBox="0 0 512 512" width="512" xmlns="http://www.w3.org/2000/svg"><g><path d="m286 102v-31c0-13.807 11.193-25 25-25v-36c0-5.523-4.477-10-10-10h-90c-5.523 0-10 4.477-10 10v36c13.807 0 25 11.193 25 25v31z" fill="#4ec9ff"/><path d="m311 10v36c-13.81 0-25 11.19-25 25v31h-30v-102h45c5.52 0 10 4.48 10 10z" fill="#0095ff"/><path d="m463.82 143.82-44.76 44.75c-15.63-26.07-37.34-48.11-63.15-64.12l44.27-44.27c5.86-5.86 15.36-5.86 21.21 0l42.43 42.43c5.86 5.85 5.86 15.35 0 21.21z" fill="#0095ff"/><path d="m156.09 124.45c-25.81 16.01-47.52 38.05-63.15 64.12l-44.76-44.75c-5.86-5.86-5.86-15.36 0-21.21l42.43-42.43c5.85-5.86 15.35-5.86 21.21 0z" fill="#4ec9ff"/><path d="m180 460.13v36.87c0 8.28-6.72 15-15 15h-59c-8.28 0-15-6.72-15-15v-108.62c0-2.12.45-4.18 1.28-6.05 20.25 34.29 50.97 61.7 87.72 77.8z" fill="#4ec9ff"/><path d="m421 388.38v108.62c0 8.28-6.72 15-15 15h-59c-8.28 0-15-6.72-15-15v-36.87c36.75-16.1 67.47-43.51 87.72-77.8.83 1.87 1.28 3.93 1.28 6.05z" fill="#0095ff"/><circle cx="256" cy="286" fill="#cee8ff" r="195"/><path d="m451 286c0 107.52-87.48 195-195 195v-390c107.52 0 195 87.48 195 195z" fill="#aedaff"/><circle cx="256" cy="286" fill="#edf5ff" r="165"/><path d="m421 286c0 90.98-74.02 165-165 165v-330c90.98 0 165 74.02 165 165z" fill="#cee8ff"/><path d="m256 151c-8.284 0-15 6.716-15 15v120c0 8.284 6.716 15 15 15h120c8.284 0 15-6.716 15-15 0-74.439-60.561-135-135-135z" fill="#ff7900"/><path d="m391 286c0 8.28-6.72 15-15 15h-120v-150c74.44 0 135 60.56 135 135z" fill="#ff4800"/><g fill="#cee8ff"><circle cx="171.147" cy="201.147" r="15"/><circle cx="136" cy="286" r="15"/><circle cx="171.147" cy="370.853" r="15"/><circle cx="256" cy="406" r="15"/></g><path d="m271 406c0 8.28-6.72 15-15 15v-30c8.28 0 15 6.72 15 15z" fill="#aedaff"/><circle cx="340.853" cy="370.853" fill="#aedaff" r="15"/></g></svg>