<svg id="Capa_1" enable-background="new 0 0 512 512" height="512" viewBox="0 0 512 512" width="512" xmlns="http://www.w3.org/2000/svg"><g><path d="m316 425.192v-43.192h-120v43.192c0 23.09-18.718 41.808-41.808 41.808h-18.192c-5.523 0-10 4.477-10 10v25c0 5.523 4.477 10 10 10h240c5.523 0 10-4.477 10-10v-25c0-5.523-4.477-10-10-10h-18.192c-23.09 0-41.808-18.718-41.808-41.808z" fill="#cee8ff"/><path d="m386 477v25c0 5.52-4.48 10-10 10h-120v-130h60v43.19c0 23.09 18.72 41.81 41.81 41.81h18.19c5.52 0 10 4.48 10 10z" fill="#aedaff"/><path d="m512 15c0-8.284-6.716-15-15-15h-482c-8.284 0-15 6.716-15 15v286l256 20 256-20z" fill="#004692"/><path d="m512 15v286l-256 20v-321h241c8.28 0 15 6.72 15 15z" fill="#00204d"/><path d="m30 30h452v243.252h-452z" fill="#4ec9ff"/><path d="m256 30h226v243.25h-226z" fill="#0095ff"/><path d="m0 301v76c0 8.284 6.716 15 15 15h482c8.284 0 15-6.716 15-15v-76z" fill="#edf5ff"/><path d="m512 301v76c0 8.28-6.72 15-15 15h-241v-91z" fill="#cee8ff"/><path d="m257 60h-181c-8.284 0-15 6.716-15 15v151c0 8.284 6.716 15 15 15h181c8.284 0 15-6.716 15-15v-151c0-8.284-6.716-15-15-15z" fill="#004692"/><path d="m272 75v151c0 8.28-6.72 15-15 15h-1v-181h1c8.28 0 15 6.72 15 15z" fill="#00204d"/><path d="m91 90h151v121h-151z" fill="#4ec9ff"/><path d="m242 139.78v71.22h-123.21l86.6-86.61c5.863-5.842 15.337-5.863 21.22 0z" fill="#ff7900"/><path d="m436 59h-120c-8.284 0-15 6.716-15 15v90c0 8.284 6.716 15 15 15h120c8.284 0 15-6.716 15-15v-90c0-8.284-6.716-15-15-15z" fill="#00204d"/><path d="m394.234 89-63.234 45.79v-45.79z" fill="#cee8ff"/><path d="m362.528 149 58.472-42.342v42.342z" fill="#cee8ff"/><path d="m436 211h-120c-8.284 0-15 6.716-15 15s6.716 15 15 15h120c8.284 0 15-6.716 15-15s-6.716-15-15-15z" fill="#00204d"/><path d="m233.21 211h-142.21v-51.22l34.89-34.89c5.86-5.85 15.36-5.85 21.22 0z" fill="#ffaa17"/></g></svg>