<svg id="Capa_1" enable-background="new 0 0 512 512" height="512" viewBox="0 0 512 512" width="512" xmlns="http://www.w3.org/2000/svg"><g><path d="m0 106v391c0 8.284 6.716 15 15 15h482c8.284 0 15-6.716 15-15v-391l-256-10z" fill="#edf5ff"/><path d="m512 106v391c0 8.28-6.72 15-15 15h-241v-416z" fill="#cee8ff"/><path d="m512 15c0-8.284-6.716-15-15-15h-482c-8.284 0-15 6.716-15 15v91h512z" fill="#004692"/><path d="m512 15v91h-256v-106h241c8.28 0 15 6.72 15 15z" fill="#00204d"/><path d="m362.5 189.416h-211c-32.809 0-59.5 26.691-59.5 59.5s26.691 59.5 59.5 59.5h211c32.809 0 59.5-26.691 59.5-59.5s-26.691-59.5-59.5-59.5z" fill="#ffda2d"/><path d="m422 248.92c0 32.8-26.69 59.5-59.5 59.5h-106.5v-119h106.5c32.81 0 59.5 26.69 59.5 59.5z" fill="#ffaa17"/><path d="m362.5 278.416h-211c-16.267 0-29.5-13.233-29.5-29.5s13.233-29.5 29.5-29.5h211c16.267 0 29.5 13.233 29.5 29.5s-13.233 29.5-29.5 29.5z" fill="#ff7900"/><path d="m392 248.92c0 16.26-13.23 29.5-29.5 29.5h-106.5v-59h106.5c16.27 0 29.5 13.23 29.5 29.5z" fill="#ff4800"/><path d="m394.279 348.795-84.001-93.047c-9.184-10.175-26.134-3.648-26.134 10.052v125.355c0 10.507 10.565 17.779 20.385 14l28-10.769 9.453 24.579c2.97 7.723 11.644 11.593 19.385 8.615 7.732-2.974 11.589-11.652 8.615-19.385l-9.453-24.578 28.001-10.77c9.788-3.765 12.82-16.219 5.749-24.052z" fill="#4ec9ff"/><circle cx="458" cy="53" fill="#e63950" r="15"/><circle cx="398" cy="53" fill="#ffda2d" r="15"/><circle cx="338" cy="53" fill="#32fca5" r="15"/></g></svg>