<svg id="Capa_1" enable-background="new 0 0 512.003 512.003" height="512" viewBox="0 0 512.003 512.003" width="512" xmlns="http://www.w3.org/2000/svg"><g><path d="m509.521 247.741c-1.062-1.609-26.494-39.846-70.05-78.464-119.064-105.565-247.789-105.642-366.941 0-43.556 38.618-68.989 76.854-70.05 78.464-3.305 5.011-3.305 11.509 0 16.52 1.062 1.609 26.494 39.846 70.05 78.464 119.064 105.565 247.789 105.642 366.941 0 43.556-38.618 68.989-76.854 70.05-78.464 3.305-5.011 3.305-11.509 0-16.52z" fill="#edf5ff"/><path d="m509.52 264.261c-1.06 1.61-26.49 39.85-70.05 78.46-59.56 52.81-121.52 79.21-183.47 79.21v-331.86c61.97 0 123.93 26.42 183.47 79.21 43.56 38.61 68.99 76.85 70.05 78.46 3.31 5.01 3.31 11.51 0 16.52z" fill="#cee8ff"/><circle cx="256" cy="256.001" fill="#004692" r="90.385"/><path d="m346.38 256.001c0 49.92-40.46 90.38-90.38 90.38v-180.76c49.92 0 90.38 40.46 90.38 90.38z" fill="#00204d"/><path d="m331.487 256.001 49.743 10 40.263-10c-.271-91.027-74.404-165-165.494-165l-10 46.769 10 43.231c41.464 0 75.217 33.6 75.488 75z" fill="#00e97b"/><path d="m256 181.001v-90c-91.09 0-165.222 73.973-165.494 165l45.34 10 44.667-10c.271-41.4 34.024-75 75.487-75z" fill="#ffda2d"/><path d="m180.5 256.501c0-.168.012-.333.013-.5h-90.007c0 .167-.006.333-.006.5 0 91.257 74.243 165.5 165.5 165.5l10-42.615-10-47.385c-41.631 0-75.5-33.869-75.5-75.5z" fill="#4ec9ff"/><g><path d="m75 60.001h-60c-8.284 0-15 6.716-15 15v60c0 8.284 6.716 15 15 15s15-6.716 15-15v-45h45c8.284 0 15-6.716 15-15s-6.716-15-15-15z" fill="#0066b2"/><path d="m497 60.001h-60c-8.284 0-15 6.716-15 15s6.716 15 15 15h45v45c0 8.284 6.716 15 15 15s15-6.716 15-15v-60c0-8.284-6.716-15-15-15z" fill="#004692"/><path d="m497 362.001c-8.284 0-15 6.716-15 15v45h-45c-8.284 0-15 6.716-15 15s6.716 15 15 15h60c8.284 0 15-6.716 15-15v-60c0-8.284-6.716-15-15-15z" fill="#004692"/><path d="m75 422.001h-45v-45c0-8.284-6.716-15-15-15s-15 6.716-15 15v60c0 8.284 6.716 15 15 15h60c8.284 0 15-6.716 15-15s-6.716-15-15-15z" fill="#0066b2"/></g><path d="m331.487 256.001c.001.167.013.332.013.5 0 41.631-33.869 75.5-75.5 75.5v90c91.257 0 165.5-74.243 165.5-165.5 0-.167-.006-.333-.006-.5z" fill="#ff4800"/></g></svg>