<svg id="Capa_1" enable-background="new 0 0 512 512" height="512" viewBox="0 0 512 512" width="512" xmlns="http://www.w3.org/2000/svg"><g><path d="m0 106v391c0 8.284 6.716 15 15 15h482c8.284 0 15-6.716 15-15v-391l-256-10z" fill="#edf5ff"/><path d="m512 106v391c0 8.28-6.72 15-15 15h-241v-416z" fill="#cee8ff"/><path d="m512 15c0-8.284-6.716-15-15-15h-482c-8.284 0-15 6.716-15 15v91h512z" fill="#004692"/><path d="m512 15v91h-256v-106h241c8.28 0 15 6.72 15 15z" fill="#00204d"/><circle cx="458" cy="53" fill="#e63950" r="15"/><circle cx="398" cy="53" fill="#ffda2d" r="15"/><circle cx="338" cy="53" fill="#32fca5" r="15"/><path d="m436 181h-210c-8.284 0-15 6.716-15 15v240c0 8.284 6.716 15 15 15h210c8.284 0 15-6.716 15-15v-240c0-8.284-6.716-15-15-15z" fill="#ffaa17"/><path d="m451 196v240c0 8.28-6.72 15-15 15h-180v-270h180c8.28 0 15 6.72 15 15z" fill="#ff7900"/><path d="m421 396.078-161.943-185.078h161.943z" fill="#ffaa17"/><path d="m241 235.922 161.943 185.078h-161.943z" fill="#ffda2d"/><path d="m402.94 421h-146.94v-167.94z" fill="#ffaa17"/><path d="m181 286v-90c0-8.284-6.716-15-15-15h-90c-8.313 0-15 6.781-15 15v90c0 8.284 6.716 15 15 15h90c8.2 0 15-6.666 15-15z" fill="#ffaa17"/><path d="m151 249.787-38.787-38.787h38.787z" fill="#ffda2d"/><path d="m91 232.213 38.787 38.787h-38.787z" fill="#ffda2d"/><path d="m166 331h-90c-8.284 0-15 6.716-15 15v90c0 8.284 6.716 15 15 15h90c8.284 0 15-6.716 15-15v-90c0-8.284-6.716-15-15-15z" fill="#ffaa17"/><g fill="#ffda2d"><path d="m151 399.787-38.787-38.787h38.787z"/><path d="m91 382.213 38.787 38.787h-38.787z"/></g></g></svg>