<svg id="Capa_1" enable-background="new 0 0 512 512" height="512" viewBox="0 0 512 512" width="512" xmlns="http://www.w3.org/2000/svg"><g><path d="m35.33 141.14c-.03.02-.03.02-.03.02l53.52 107.94c-10.34-3.49-22.04-2.69-32.07 2.84l-54.19-109.28c-3.35-6.76-1.16-14.95 5.12-19.14 0 0 .01-.01.03-.02 0 0 .02-.01.03-.02s.03-.02.04-.02c.01-.02.02-.02.02-.02 1.105-.743 11.055-7.367 83.202-55.467l4.998 5.335v27.382c-52.93 35.29-59.99 39.99-60.64 40.43-.02.01-.03.02-.02.01v.01z" fill="#00ca7d"/><path d="m0 422v75c0 8.284 6.716 15 15 15h241c8.284 0 15-6.716 15-15 0-9.539 0-41.538 0-75z" fill="#ffccbd"/><path d="m285.25 265h90.5v42h-90.5z" fill="#cee8ff"/><path d="m331 265h44.75v42h-44.75z" fill="#aedaff"/><path d="m151 211v44c0 8.284 6.716 15 15 15h330c8.284 0 15-6.716 15-15v-44l-180.539-10z" fill="#edf5ff"/><path d="m511 211v44c0 8.28-6.72 15-15 15h-165v-68.97z" fill="#cee8ff"/><path d="m511 15c0-8.284-6.716-15-15-15h-330c-8.284 0-15 6.716-15 15v196h360z" fill="#004692"/><path d="m511 15v196h-180v-211h165c8.28 0 15 6.72 15 15z" fill="#00204d"/><path d="m181 30h300v151h-300z" fill="#4ec9ff"/><path d="m331 30h150v151h-150z" fill="#0095ff"/><path d="m130.73 144.157 11.007 11.007c11.716 11.716 30.711 11.716 42.426 0s11.716-30.711 0-42.426l-12.141-12.141z" fill="#ffda2d"/><path d="m121 287v20c-42.82 0-73 0-90 .01v-20.01c0-24.81 20.19-45 45-45s45 20.19 45 45z" fill="#00e97b"/><path d="m271 332-135.308-10-135.692 10v90h271c0-39.37 0-80.767 0-90z" fill="#ffbda9"/><path d="m497 302c-8.049 0-481.164-.009-482.329.017-8.041.115-14.671 6.767-14.671 14.983v15h482v165c0 8.284 6.716 15 15 15s15-6.716 15-15v-180c0-8.284-6.716-15-15-15z" fill="#ffccbd"/><path d="m512 317v180c0 8.28-6.72 15-15 15s-15-6.72-15-15v-165h-151v-30h166c8.28 0 15 6.72 15 15z" fill="#ffbda9"/><path d="m205.64 87.08-89 89.5c-9.422 9.422-25.64 2.796-25.64-10.58v-98.03c5.549-3.38 7.72-6.035 12.74-6.8 107.276.388 89.284.323 91.34.33 13.267.066 19.924 16.15 10.56 25.58z" fill="#00e97b"/></g></svg>